<?xml version="1.0" encoding="UTF-8"?>
<svg version="1.1" xmlns="http://www.w3.org/2000/svg" width="335" height="119">
<path d="M0 0 C110.55 0 221.1 0 335 0 C335 39.27 335 78.54 335 119 C224.45 119 113.9 119 0 119 C0 79.73 0 40.46 0 0 Z " fill="#FCFCFC" transform="translate(0,0)"/>
<path d="M0 0 C3.05559743 0.88594245 4.51191936 2.88712081 6.54296875 5.23828125 C8.03997935 6.89235406 8.03997935 6.89235406 11.10546875 6.94921875 C12.52859375 6.76359375 12.52859375 6.76359375 13.98046875 6.57421875 C15.30046875 6.57421875 16.62046875 6.57421875 17.98046875 6.57421875 C18.44759371 10.49806845 18.16514832 12.83573307 15.79296875 15.94921875 C12.98046875 18.57421875 12.98046875 18.57421875 10.16796875 18.94921875 C9.44609375 18.82546875 8.72421875 18.70171875 7.98046875 18.57421875 C7.98046875 19.23421875 7.98046875 19.89421875 7.98046875 20.57421875 C8.64046875 20.57421875 9.30046875 20.57421875 9.98046875 20.57421875 C10.48889789 25.91272472 9.08427635 28.3064833 5.98046875 32.57421875 C5.98046875 33.23421875 5.98046875 33.89421875 5.98046875 34.57421875 C11.71519313 35.28777848 11.71519313 35.28777848 16.9609375 33.30859375 C18.13715275 32.23883507 19.29640762 31.15011559 20.4375 30.04296875 C23.63604923 26.99827379 26.47747264 26.61544794 30.79296875 26.26171875 C36.34549383 26.46002322 40.89396478 27.60452678 45.00390625 31.484375 C50.20691207 37.33510195 51.35879431 40.60240045 51.24609375 48.47265625 C50.6631234 55.27969236 47.74701943 59.10705353 42.79296875 63.63671875 C38.29275147 67.41181797 33.66470541 71.03058818 28.98046875 74.57421875 C29.31046875 76.22421875 29.64046875 77.87421875 29.98046875 79.57421875 C31.63046875 79.57421875 33.28046875 79.57421875 34.98046875 79.57421875 C34.98046875 77.59421875 34.98046875 75.61421875 34.98046875 73.57421875 C35.64046875 73.24421875 36.30046875 72.91421875 36.98046875 72.57421875 C38.42491319 78.83347801 38.42491319 78.83347801 36.48046875 82.07421875 C33.98046875 83.57421875 33.98046875 83.57421875 30.35546875 83.51171875 C26.98046875 82.57421875 26.98046875 82.57421875 24.98046875 79.57421875 C24.578125 76.6640625 24.578125 76.6640625 24.98046875 73.57421875 C26.8515625 71.265625 26.8515625 71.265625 29.41796875 69.13671875 C30.32546875 68.3684375 31.23296875 67.60015625 32.16796875 66.80859375 C34.71727074 64.78331494 37.30534073 62.82900142 39.91796875 60.88671875 C43.51419197 58.09742194 45.68137872 56.07773086 46.98046875 51.57421875 C47.61048809 46.17866851 47.68807694 41.98943513 45.23046875 37.07421875 C41.87629648 33.34736067 39.08853081 30.8820649 33.9296875 30.37109375 C28.81426652 30.26507466 25.44364705 30.78473231 20.98046875 33.57421875 C20.65046875 33.90421875 20.32046875 34.23421875 19.98046875 34.57421875 C24.11020503 34.00682007 24.11020503 34.00682007 27.98046875 32.57421875 C32.65119969 32.44343828 36.7058236 32.90783684 40.41796875 35.88671875 C44.46031859 40.12625639 45.17747939 42.45254862 45.44140625 48.37890625 C44.08946418 54.81781679 38.96302391 58.50920928 33.98046875 62.19921875 C27.05120038 67.03355355 27.05120038 67.03355355 21.98046875 73.57421875 C21.85829733 78.09456119 22.20746347 81.55964932 24.98046875 85.19921875 C29.09864835 87.08671773 32.66738668 86.92306651 36.98046875 85.57421875 C39.42052465 83.61883149 39.96397429 82.62370213 40.98046875 79.57421875 C41.02288598 77.241271 41.02139812 74.90719308 40.98046875 72.57421875 C40.98046875 71.25421875 40.98046875 69.93421875 40.98046875 68.57421875 C41.64046875 68.57421875 42.30046875 68.57421875 42.98046875 68.57421875 C45.45840402 72.29112166 45.66191136 76.26118563 44.98046875 80.57421875 C42.95007374 84.41746644 40.86240515 87.52541898 36.98046875 89.57421875 C30.97715966 90.92980467 28.41962233 90.66464692 22.98046875 87.57421875 C18.45509191 87.57421875 17.94239834 88.38404515 14.72265625 91.1953125 C8.50129251 96.11939636 2.0226634 97.2834222 -5.796875 97.02734375 C-13.29989476 95.9723737 -19.1487121 92.25684109 -24.01953125 86.57421875 C-24.57640625 86.86296875 -25.13328125 87.15171875 -25.70703125 87.44921875 C-30.71031924 89.88325075 -34.33865418 91.17220581 -40.01953125 90.57421875 C-44.35787043 88.32161956 -47.22240487 86.16687505 -49.01953125 81.57421875 C-49.52435088 76.5741005 -49.86088183 72.83624462 -47.01953125 68.57421875 C-46.02953125 68.90421875 -45.03953125 69.23421875 -44.01953125 69.57421875 C-44.34953125 70.56421875 -44.67953125 71.55421875 -45.01953125 72.57421875 C-45.55528698 78.39251581 -45.55528698 78.39251581 -43.14453125 83.51171875 C-40.61498274 85.96686878 -39.7137884 86.512507 -36.20703125 86.82421875 C-32.57787969 86.53957941 -30.8765696 85.79635969 -28.01953125 83.57421875 C-25.86073927 80.92479222 -25.92474398 78.79105592 -26.20703125 75.51171875 C-26.70926711 72.15727922 -27.50043722 70.86430423 -30.01953125 68.57421875 C-29.71476875 67.23406625 -29.37576633 65.90161675 -29.01953125 64.57421875 C-28.94134489 63.06026179 -28.91163216 61.54328368 -28.921875 60.02734375 C-28.92670898 58.76083984 -28.92670898 58.76083984 -28.93164062 57.46875 C-28.94001953 56.59605469 -28.94839844 55.72335938 -28.95703125 54.82421875 C-28.96154297 53.93605469 -28.96605469 53.04789063 -28.97070312 52.1328125 C-28.98245725 49.94654546 -28.99888876 47.76041696 -29.01953125 45.57421875 C-32.23592779 43.82856764 -34.33966529 43.36978175 -38.01953125 43.57421875 C-38.67953125 45.55421875 -39.33953125 47.53421875 -40.01953125 49.57421875 C-40.67953125 49.57421875 -41.33953125 49.57421875 -42.01953125 49.57421875 C-42.38056277 43.19599525 -42.38056277 43.19599525 -40.89453125 40.63671875 C-38.19648055 39.10782336 -36.06423413 39.3150951 -33.01953125 39.57421875 C-32.35953125 39.90421875 -31.69953125 40.23421875 -31.01953125 40.57421875 C-31.01953125 39.58421875 -31.01953125 38.59421875 -31.01953125 37.57421875 C-33.9224893 36.12273972 -35.79214904 36.2018285 -39.01953125 36.57421875 C-42.57142793 38.5861511 -42.57142793 38.5861511 -45.01953125 41.57421875 C-46.08973931 46.05774193 -45.69884392 49.44203097 -43.33203125 53.38671875 C-41.01854552 55.64786911 -41.01854552 55.64786911 -38.26953125 57.69921875 C-37.52703125 58.31796875 -36.78453125 58.93671875 -36.01953125 59.57421875 C-36.01953125 60.56421875 -36.01953125 61.55421875 -36.01953125 62.57421875 C-39.17656731 61.14823167 -41.59981693 59.41130535 -44.20703125 57.13671875 C-44.90183594 56.53988281 -45.59664062 55.94304687 -46.3125 55.328125 C-48.86968433 52.70072051 -49.26895922 49.9260487 -49.51953125 46.38671875 C-49.4458128 41.38205517 -47.60978348 38.62986098 -44.15625 35.11328125 C-40.62200728 32.56759271 -37.29556197 32.17963211 -33.01953125 32.57421875 C-30.20703125 33.51171875 -30.20703125 33.51171875 -28.01953125 34.57421875 C-26.69953125 34.57421875 -25.37953125 34.57421875 -24.01953125 34.57421875 C-29.57626345 31.2638251 -33.52880144 29.84139442 -40.01953125 30.57421875 C-45.28296207 32.43190022 -47.85375798 35.14213617 -51.01953125 39.57421875 C-51.93381464 41.48130718 -51.93381464 41.48130718 -52.01953125 43.57421875 C-52.20515625 45.18296875 -52.20515625 45.18296875 -52.39453125 46.82421875 C-51.58227344 54.94679688 -46.50729384 59.27960504 -40.51953125 64.26171875 C-39.40616386 65.16296255 -38.2916081 66.06274055 -37.17578125 66.9609375 C-29.28025719 73.38646726 -29.28025719 73.38646726 -28.45703125 77.13671875 C-29.2178557 80.43362468 -30.26771569 81.61898138 -33.01953125 83.57421875 C-36.19188401 84.027412 -38.08440861 84.10412158 -40.89453125 82.51171875 C-42.6014952 79.57194751 -42.20752891 76.89551072 -42.01953125 73.57421875 C-41.02953125 73.57421875 -40.03953125 73.57421875 -39.01953125 73.57421875 C-38.68953125 75.55421875 -38.35953125 77.53421875 -38.01953125 79.57421875 C-35.54453125 79.07921875 -35.54453125 79.07921875 -33.01953125 78.57421875 C-33.52777512 74.48054542 -35.52964129 72.88537607 -38.58203125 70.26171875 C-39.93361328 69.07642578 -39.93361328 69.07642578 -41.3125 67.8671875 C-42.96145805 66.47045103 -44.62697835 65.09259261 -46.3203125 63.75 C-51.94323525 59.2071867 -54.98855918 54.68980396 -56.4296875 47.5390625 C-56.87973641 41.73458558 -54.47790169 37.11332996 -51.01953125 32.57421875 C-45.8869123 27.75093174 -41.06486121 26.24310471 -34.1015625 26.359375 C-29.15232351 26.87008446 -25.71662652 28.92258621 -22.14453125 32.26171875 C-18.00778986 35.32290738 -14.99031178 35.0712968 -10.01953125 34.57421875 C-10.67953125 32.26421875 -11.33953125 29.95421875 -12.01953125 27.57421875 C-12.67953125 27.57421875 -13.33953125 27.57421875 -14.01953125 27.57421875 C-14.37195587 23.25701713 -14.2007687 20.43188723 -11.95703125 16.76171875 C-11.31765625 15.70984375 -10.67828125 14.65796875 -10.01953125 13.57421875 C-10.51453125 12.58421875 -10.51453125 12.58421875 -11.01953125 11.57421875 C-11.54934144 7.6006423 -11.33834599 6.03251494 -9.01953125 2.69921875 C-5.89224159 0.48405524 -3.85020955 -0.20948607 0 0 Z " fill="#F8F9F9" transform="translate(65.01953125,8.42578125)"/>
<path d="M0 0 C3.05559743 0.88594245 4.51191936 2.88712081 6.54296875 5.23828125 C8.03997935 6.89235406 8.03997935 6.89235406 11.10546875 6.94921875 C12.52859375 6.76359375 12.52859375 6.76359375 13.98046875 6.57421875 C15.30046875 6.57421875 16.62046875 6.57421875 17.98046875 6.57421875 C18.44759371 10.49806845 18.16514832 12.83573307 15.79296875 15.94921875 C12.98046875 18.57421875 12.98046875 18.57421875 10.16796875 18.94921875 C9.44609375 18.82546875 8.72421875 18.70171875 7.98046875 18.57421875 C7.98046875 19.23421875 7.98046875 19.89421875 7.98046875 20.57421875 C8.64046875 20.57421875 9.30046875 20.57421875 9.98046875 20.57421875 C10.48889789 25.91272472 9.08427635 28.3064833 5.98046875 32.57421875 C5.98046875 33.23421875 5.98046875 33.89421875 5.98046875 34.57421875 C11.71519313 35.28777848 11.71519313 35.28777848 16.9609375 33.30859375 C18.13715275 32.23883507 19.29640762 31.15011559 20.4375 30.04296875 C23.63604923 26.99827379 26.47747264 26.61544794 30.79296875 26.26171875 C36.34549383 26.46002322 40.89396478 27.60452678 45.00390625 31.484375 C50.20691207 37.33510195 51.35879431 40.60240045 51.24609375 48.47265625 C50.6631234 55.27969236 47.74701943 59.10705353 42.79296875 63.63671875 C38.29275147 67.41181797 33.66470541 71.03058818 28.98046875 74.57421875 C29.31046875 76.22421875 29.64046875 77.87421875 29.98046875 79.57421875 C31.63046875 79.57421875 33.28046875 79.57421875 34.98046875 79.57421875 C34.98046875 77.59421875 34.98046875 75.61421875 34.98046875 73.57421875 C35.64046875 73.24421875 36.30046875 72.91421875 36.98046875 72.57421875 C38.42491319 78.83347801 38.42491319 78.83347801 36.48046875 82.07421875 C33.98046875 83.57421875 33.98046875 83.57421875 30.35546875 83.51171875 C26.98046875 82.57421875 26.98046875 82.57421875 24.98046875 79.57421875 C24.578125 76.6640625 24.578125 76.6640625 24.98046875 73.57421875 C26.8515625 71.265625 26.8515625 71.265625 29.41796875 69.13671875 C30.32546875 68.3684375 31.23296875 67.60015625 32.16796875 66.80859375 C34.71727074 64.78331494 37.30534073 62.82900142 39.91796875 60.88671875 C43.51419197 58.09742194 45.68137872 56.07773086 46.98046875 51.57421875 C47.61048809 46.17866851 47.68807694 41.98943513 45.23046875 37.07421875 C41.87629648 33.34736067 39.08853081 30.8820649 33.9296875 30.37109375 C28.81426652 30.26507466 25.44364705 30.78473231 20.98046875 33.57421875 C20.65046875 33.90421875 20.32046875 34.23421875 19.98046875 34.57421875 C24.11020503 34.00682007 24.11020503 34.00682007 27.98046875 32.57421875 C32.65119969 32.44343828 36.7058236 32.90783684 40.41796875 35.88671875 C44.04872339 39.69458338 44.84496208 41.17398314 45.35546875 46.44921875 C45.19149043 50.89303123 43.95832126 53.17095874 40.98046875 56.57421875 C37.73957181 59.36809542 34.39998145 62.00305844 30.98046875 64.57421875 C29.66046875 63.91421875 28.34046875 63.25421875 26.98046875 62.57421875 C27.82351562 61.9709375 28.6665625 61.36765625 29.53515625 60.74609375 C30.64224231 59.93923442 31.74899582 59.13191867 32.85546875 58.32421875 C33.41105469 57.92847656 33.96664062 57.53273437 34.5390625 57.125 C37.55548721 54.90810955 39.77068252 53.1742493 40.98046875 49.57421875 C41.56389228 46.11652684 41.56389228 46.11652684 40.98046875 42.57421875 C38.80772655 39.94405714 37.03373087 38.10084981 33.98046875 36.57421875 C30.79857681 36.29753249 28.68230958 36.20717411 25.82324219 37.70239258 C23.23153021 40.33496488 23.43965451 42.12257718 23.37109375 45.7734375 C23.33886719 46.98193359 23.30664062 48.19042969 23.2734375 49.43554688 C23.25925781 50.69818359 23.24507813 51.96082031 23.23046875 53.26171875 C23.18599609 55.17307617 23.18599609 55.17307617 23.140625 57.12304688 C23.06982826 60.27350167 23.01717828 63.42321215 22.98046875 66.57421875 C22.65046875 66.57421875 22.32046875 66.57421875 21.98046875 66.57421875 C21.98046875 57.66421875 21.98046875 48.75421875 21.98046875 39.57421875 C19.58796875 39.67734375 17.19546875 39.78046875 14.73046875 39.88671875 C13.9837793 39.91161377 13.23708984 39.93650879 12.46777344 39.9621582 C8.2495417 40.19530684 6.19724988 40.95670948 2.98046875 43.57421875 C0.578125 44.0078125 0.578125 44.0078125 -1.95703125 44.01171875 C-2.79105469 44.03105469 -3.62507813 44.05039062 -4.484375 44.0703125 C-7.01953125 43.57421875 -7.01953125 43.57421875 -9.34765625 41.59375 C-12.76335744 39.01199925 -15.70591903 38.91108427 -19.83203125 38.82421875 C-20.52490234 38.79457031 -21.21777344 38.76492187 -21.93164062 38.734375 C-23.62699338 38.66422247 -25.32326437 38.61689213 -27.01953125 38.57421875 C-26.95053627 42.63158094 -26.86251465 46.68804565 -26.75708008 50.74462891 C-26.72388932 52.12374542 -26.69583908 53.50299586 -26.6730957 54.88232422 C-26.63944483 56.86844181 -26.58558396 58.85418434 -26.53125 60.83984375 C-26.50506592 62.03383789 -26.47888184 63.22783203 -26.4519043 64.45800781 C-25.9824245 67.84165554 -25.14317985 69.00230931 -23.01953125 71.57421875 C-22.45101867 75.15584798 -22.08404381 78.64953876 -21.83203125 82.26171875 C-20.59050351 85.79529772 -17.99632876 87.52635096 -15.01953125 89.57421875 C-14.15328125 90.17234375 -13.28703125 90.77046875 -12.39453125 91.38671875 C-5.71486143 93.73697295 1.35318131 93.58728348 7.91796875 90.88671875 C11.67772802 88.90789808 14.54699475 87.14838369 16.98046875 83.57421875 C17.66940435 79.90680219 17.90866985 76.30123436 17.98046875 72.57421875 C18.31046875 72.57421875 18.64046875 72.57421875 18.98046875 72.57421875 C19.47546875 77.02921875 19.47546875 77.02921875 19.98046875 81.57421875 C20.64046875 80.91421875 21.30046875 80.25421875 21.98046875 79.57421875 C22.41359375 80.35796875 22.84671875 81.14171875 23.29296875 81.94921875 C24.87267122 84.7912025 24.87267122 84.7912025 27.98046875 86.57421875 C30.17235383 86.71228509 30.17235383 86.71228509 32.48046875 86.38671875 C33.25390625 86.31066406 34.02734375 86.23460938 34.82421875 86.15625 C37.38677312 85.46454601 38.35628915 84.64900915 39.98046875 82.57421875 C41.14691466 79.07488102 41.04494507 76.24936902 40.98046875 72.57421875 C40.98046875 71.25421875 40.98046875 69.93421875 40.98046875 68.57421875 C41.64046875 68.57421875 42.30046875 68.57421875 42.98046875 68.57421875 C45.45840402 72.29112166 45.66191136 76.26118563 44.98046875 80.57421875 C42.95007374 84.41746644 40.86240515 87.52541898 36.98046875 89.57421875 C30.97715966 90.92980467 28.41962233 90.66464692 22.98046875 87.57421875 C18.45509191 87.57421875 17.94239834 88.38404515 14.72265625 91.1953125 C8.50129251 96.11939636 2.0226634 97.2834222 -5.796875 97.02734375 C-13.29989476 95.9723737 -19.1487121 92.25684109 -24.01953125 86.57421875 C-24.57640625 86.86296875 -25.13328125 87.15171875 -25.70703125 87.44921875 C-30.71031924 89.88325075 -34.33865418 91.17220581 -40.01953125 90.57421875 C-44.35787043 88.32161956 -47.22240487 86.16687505 -49.01953125 81.57421875 C-49.52435088 76.5741005 -49.86088183 72.83624462 -47.01953125 68.57421875 C-46.02953125 68.90421875 -45.03953125 69.23421875 -44.01953125 69.57421875 C-44.34953125 70.56421875 -44.67953125 71.55421875 -45.01953125 72.57421875 C-45.55528698 78.39251581 -45.55528698 78.39251581 -43.14453125 83.51171875 C-40.61498274 85.96686878 -39.7137884 86.512507 -36.20703125 86.82421875 C-32.57787969 86.53957941 -30.8765696 85.79635969 -28.01953125 83.57421875 C-25.86073927 80.92479222 -25.92474398 78.79105592 -26.20703125 75.51171875 C-26.70926711 72.15727922 -27.50043722 70.86430423 -30.01953125 68.57421875 C-29.71476875 67.23406625 -29.37576633 65.90161675 -29.01953125 64.57421875 C-28.94134489 63.06026179 -28.91163216 61.54328368 -28.921875 60.02734375 C-28.92670898 58.76083984 -28.92670898 58.76083984 -28.93164062 57.46875 C-28.94001953 56.59605469 -28.94839844 55.72335938 -28.95703125 54.82421875 C-28.96154297 53.93605469 -28.96605469 53.04789063 -28.97070312 52.1328125 C-28.98245725 49.94654546 -28.99888876 47.76041696 -29.01953125 45.57421875 C-32.23592779 43.82856764 -34.33966529 43.36978175 -38.01953125 43.57421875 C-38.67953125 45.55421875 -39.33953125 47.53421875 -40.01953125 49.57421875 C-40.67953125 49.57421875 -41.33953125 49.57421875 -42.01953125 49.57421875 C-42.38056277 43.19599525 -42.38056277 43.19599525 -40.89453125 40.63671875 C-38.19648055 39.10782336 -36.06423413 39.3150951 -33.01953125 39.57421875 C-32.35953125 39.90421875 -31.69953125 40.23421875 -31.01953125 40.57421875 C-31.01953125 39.58421875 -31.01953125 38.59421875 -31.01953125 37.57421875 C-33.9224893 36.12273972 -35.79214904 36.2018285 -39.01953125 36.57421875 C-42.57142793 38.5861511 -42.57142793 38.5861511 -45.01953125 41.57421875 C-46.08973931 46.05774193 -45.69884392 49.44203097 -43.33203125 53.38671875 C-41.01854552 55.64786911 -41.01854552 55.64786911 -38.26953125 57.69921875 C-37.52703125 58.31796875 -36.78453125 58.93671875 -36.01953125 59.57421875 C-36.01953125 60.56421875 -36.01953125 61.55421875 -36.01953125 62.57421875 C-39.17656731 61.14823167 -41.59981693 59.41130535 -44.20703125 57.13671875 C-44.90183594 56.53988281 -45.59664062 55.94304687 -46.3125 55.328125 C-48.86968433 52.70072051 -49.26895922 49.9260487 -49.51953125 46.38671875 C-49.4458128 41.38205517 -47.60978348 38.62986098 -44.15625 35.11328125 C-40.62200728 32.56759271 -37.29556197 32.17963211 -33.01953125 32.57421875 C-30.20703125 33.51171875 -30.20703125 33.51171875 -28.01953125 34.57421875 C-26.69953125 34.57421875 -25.37953125 34.57421875 -24.01953125 34.57421875 C-29.57626345 31.2638251 -33.52880144 29.84139442 -40.01953125 30.57421875 C-45.28296207 32.43190022 -47.85375798 35.14213617 -51.01953125 39.57421875 C-51.93381464 41.48130718 -51.93381464 41.48130718 -52.01953125 43.57421875 C-52.20515625 45.18296875 -52.20515625 45.18296875 -52.39453125 46.82421875 C-51.58227344 54.94679688 -46.50729384 59.27960504 -40.51953125 64.26171875 C-39.40616386 65.16296255 -38.2916081 66.06274055 -37.17578125 66.9609375 C-29.28025719 73.38646726 -29.28025719 73.38646726 -28.45703125 77.13671875 C-29.2178557 80.43362468 -30.26771569 81.61898138 -33.01953125 83.57421875 C-36.19188401 84.027412 -38.08440861 84.10412158 -40.89453125 82.51171875 C-42.6014952 79.57194751 -42.20752891 76.89551072 -42.01953125 73.57421875 C-41.02953125 73.57421875 -40.03953125 73.57421875 -39.01953125 73.57421875 C-38.68953125 75.55421875 -38.35953125 77.53421875 -38.01953125 79.57421875 C-35.54453125 79.07921875 -35.54453125 79.07921875 -33.01953125 78.57421875 C-33.52777512 74.48054542 -35.52964129 72.88537607 -38.58203125 70.26171875 C-39.93361328 69.07642578 -39.93361328 69.07642578 -41.3125 67.8671875 C-42.96145805 66.47045103 -44.62697835 65.09259261 -46.3203125 63.75 C-51.94323525 59.2071867 -54.98855918 54.68980396 -56.4296875 47.5390625 C-56.87973641 41.73458558 -54.47790169 37.11332996 -51.01953125 32.57421875 C-45.8869123 27.75093174 -41.06486121 26.24310471 -34.1015625 26.359375 C-29.15232351 26.87008446 -25.71662652 28.92258621 -22.14453125 32.26171875 C-18.00778986 35.32290738 -14.99031178 35.0712968 -10.01953125 34.57421875 C-10.67953125 32.26421875 -11.33953125 29.95421875 -12.01953125 27.57421875 C-12.67953125 27.57421875 -13.33953125 27.57421875 -14.01953125 27.57421875 C-14.37195587 23.25701713 -14.2007687 20.43188723 -11.95703125 16.76171875 C-11.31765625 15.70984375 -10.67828125 14.65796875 -10.01953125 13.57421875 C-10.51453125 12.58421875 -10.51453125 12.58421875 -11.01953125 11.57421875 C-11.54934144 7.6006423 -11.33834599 6.03251494 -9.01953125 2.69921875 C-5.89224159 0.48405524 -3.85020955 -0.20948607 0 0 Z " fill="#727C84" transform="translate(65.01953125,8.42578125)"/>
<path d="M0 0 C3.6578218 2.03993908 5.66946174 3.50419262 8 7 C8.47400458 12.11924945 7.96430209 14.84227759 5 19 C2.4511664 21.19159551 -0.21067493 23.14204137 -2.91796875 25.1328125 C-3.94857422 26.05707031 -3.94857422 26.05707031 -5 27 C-5 27.99 -5 28.98 -5 30 C-6.65385233 31.34919532 -8.321702 32.68133728 -10 34 C-11.88892068 36.64448895 -12.16177894 39.02513313 -12.5 42.1875 C-12.665 43.445625 -12.83 44.70375 -13 46 C-13.99 46.495 -13.99 46.495 -15 47 C-15.08133791 45.08404032 -15.13934367 43.16708068 -15.1875 41.25 C-15.22230469 40.18265625 -15.25710937 39.1153125 -15.29296875 38.015625 C-15 35 -15 35 -13.50268555 33.19628906 C-11.51026196 30.28421065 -11.64583518 28.34964564 -11.6640625 24.84375 C-11.65117188 23.65652344 -11.63828125 22.46929687 -11.625 21.24609375 C-11.625 18.7486857 -11.63281273 16.25126543 -11.6484375 13.75390625 C-11.63296875 12.56667969 -11.6175 11.37945312 -11.6015625 10.15625 C-11.60494629 9.07150391 -11.60833008 7.98675781 -11.61181641 6.86914062 C-11 4 -11 4 -8.64599609 1.64648438 C-5.36537644 -0.3948977 -3.80455536 -0.6211519 0 0 Z " fill="#657179" transform="translate(99,44)"/>
<path d="M0 0 C0.99 0.33 1.98 0.66 3 1 C2.67 1.99 2.34 2.98 2 4 C1.46424427 9.81829706 1.46424427 9.81829706 3.875 14.9375 C6.40454851 17.39265003 7.30574285 17.93828825 10.8125 18.25 C14.44165156 17.96536066 16.14296165 17.22214094 19 15 C21.08016771 12.32549866 21.06503391 10.144432 21 6.875 C21 3 21 3 23 1 C24.65621721 4.31243442 24.99227972 6.1621259 24.8125 9.9375 C24.74080761 13.39828703 25.0468787 14.07617789 27 17.25 C31.90809728 22.25379834 36.95558153 24.23351456 43.9375 24.5 C51.16787311 24.23525149 56.12199205 21.97863047 62 17.9375 C64.97452761 13.56866257 64.90014347 9.1834619 65 4 C65.33 4 65.66 4 66 4 C66.495 8.455 66.495 8.455 67 13 C67.66 12.34 68.32 11.68 69 11 C69.433125 11.78375 69.86625 12.5675 70.3125 13.375 C71.89220247 16.21698375 71.89220247 16.21698375 75 18 C77.19188508 18.13806634 77.19188508 18.13806634 79.5 17.8125 C80.2734375 17.73644531 81.046875 17.66039063 81.84375 17.58203125 C84.40630437 16.89032726 85.3758204 16.0747904 87 14 C88.16644591 10.50066227 88.06447632 7.67515027 88 4 C88 2.68 88 1.36 88 0 C88.66 0 89.32 0 90 0 C92.47793527 3.71690291 92.68144261 7.68696688 92 12 C89.96960499 15.84324769 87.8819364 18.95120023 84 21 C77.99669091 22.35558592 75.43915358 22.09042817 70 19 C65.47462316 19 64.96192959 19.8098264 61.7421875 22.62109375 C55.52082376 27.54517761 49.04219465 28.70920345 41.22265625 28.453125 C33.71963649 27.39815495 27.87081915 23.68262234 23 18 C22.443125 18.28875 21.88625 18.5775 21.3125 18.875 C16.30921201 21.309032 12.68087707 22.59798706 7 22 C2.66166082 19.74740081 -0.20287362 17.5926563 -2 13 C-2.50481963 7.99988175 -2.84135058 4.26202587 0 0 Z " fill="#6F7981" transform="translate(18,77)"/>
<path d="M0 0 C3.05559743 0.88594245 4.51191936 2.88712081 6.54296875 5.23828125 C8.03997935 6.89235406 8.03997935 6.89235406 11.10546875 6.94921875 C12.05421875 6.82546875 13.00296875 6.70171875 13.98046875 6.57421875 C15.30046875 6.57421875 16.62046875 6.57421875 17.98046875 6.57421875 C18.32981123 9.50869556 18.49542093 11.71789377 16.9375 14.30859375 C15.60546875 15.94921875 15.60546875 15.94921875 12.98046875 18.57421875 C12.32046875 18.57421875 11.66046875 18.57421875 10.98046875 18.57421875 C10.98046875 17.91421875 10.98046875 17.25421875 10.98046875 16.57421875 C9.00046875 16.57421875 7.02046875 16.57421875 4.98046875 16.57421875 C4.98046875 17.56421875 4.98046875 18.55421875 4.98046875 19.57421875 C3.66046875 19.57421875 2.34046875 19.57421875 0.98046875 19.57421875 C0.98046875 18.91421875 0.98046875 18.25421875 0.98046875 17.57421875 C-0.99953125 18.56421875 -0.99953125 18.56421875 -3.01953125 19.57421875 C-3.01953125 22.54421875 -3.01953125 25.51421875 -3.01953125 28.57421875 C-4.00953125 28.24421875 -4.99953125 27.91421875 -6.01953125 27.57421875 C-6.01953125 25.26421875 -6.01953125 22.95421875 -6.01953125 20.57421875 C-7.00953125 20.24421875 -7.99953125 19.91421875 -9.01953125 19.57421875 C-10.26953125 17.63671875 -10.26953125 17.63671875 -11.01953125 15.57421875 C-10.68953125 14.91421875 -10.35953125 14.25421875 -10.01953125 13.57421875 C-10.34953125 12.91421875 -10.67953125 12.25421875 -11.01953125 11.57421875 C-11.54934144 7.6006423 -11.33834599 6.03251494 -9.01953125 2.69921875 C-5.89224159 0.48405524 -3.85020955 -0.20948607 0 0 Z " fill="#6E7981" transform="translate(65.01953125,8.42578125)"/>
<path d="M0 0 C3.0625 1.5 3.0625 1.5 5 3 C4.34 4.32 3.68 5.64 3 7 C2.30132812 6.97679687 1.60265625 6.95359375 0.8828125 6.9296875 C-0.02726562 6.91164063 -0.93734375 6.89359375 -1.875 6.875 C-2.77992188 6.85179687 -3.68484375 6.82859375 -4.6171875 6.8046875 C-7.18806994 6.75675164 -7.18806994 6.75675164 -9 9 C-9.34490322 13.05261287 -9.30163882 14.54754176 -7 18 C-3.41642759 18.25015873 -3.41642759 18.25015873 0 18 C0.33 17.01 0.66 16.02 1 15 C-0.98 15 -2.96 15 -5 15 C-5 13.35 -5 11.7 -5 10 C-1.37 10 2.26 10 6 10 C6 13.96 6 17.92 6 22 C0.96652223 25.02008666 -2.27680919 25.54506579 -8 25 C-11.66883017 23.36940881 -14.12234547 21.5675436 -16 18 C-17.26176965 13.24340073 -17.54716189 10.09432378 -15.3125 5.625 C-10.52249029 0.18769168 -7.2400195 -1.00484256 0 0 Z " fill="#657078" transform="translate(202,25)"/>
<path d="M0 0 C3.76453411 2.06680304 6.95375975 4.14825364 9 8 C9 11.17220926 7.80494659 12.22141198 5.6875 14.625 C3 17 3 17 -1 19 C-1.33 24.61 -1.66 30.22 -2 36 C-0.35 36.33 1.3 36.66 3 37 C3 37.33 3 37.66 3 38 C-1.29 38 -5.58 38 -10 38 C-7 36 -7 36 -4 36 C-4.33 30.39 -4.66 24.78 -5 19 C-6.98 18.01 -8.96 17.02 -11 16 C-13.4375 13.625 -13.4375 13.625 -15 11 C-14.75 8.1875 -14.75 8.1875 -14 6 C-13.34 6 -12.68 6 -12 6 C-11.7525 5.38125 -11.505 4.7625 -11.25 4.125 C-8.65823764 -0.28099601 -4.81527456 -0.57783295 0 0 Z " fill="#606C74" transform="translate(66,56)"/>
<path d="M0 0 C0.99 0.66 1.98 1.32 3 2 C2.67 3.32 2.34 4.64 2 6 C1.34 5.67 0.68 5.34 0 5 C-3 4.75 -3 4.75 -6 5 C-8.76223278 7.76223278 -8.57856291 10.20706617 -9 14 C-8.34 14 -7.68 14 -7 14 C-7.04125 13.21625 -7.0825 12.4325 -7.125 11.625 C-7 9 -7 9 -5 7 C-2.03770678 6.61022458 -0.48301527 6.71928079 2.1171875 8.23046875 C4.45236753 10.4251504 4.56973717 11.47040041 4.75 14.625 C4.82734375 15.94564453 4.82734375 15.94564453 4.90625 17.29296875 C4.9371875 18.18628906 4.968125 19.07960938 5 20 C5.07734375 21.26263672 5.07734375 21.26263672 5.15625 22.55078125 C5.3917666 28.54664123 5.3917666 28.54664123 3.484375 30.75390625 C2.99453125 31.16511719 2.5046875 31.57632813 2 32 C-2.77673546 28.60600375 -2.77673546 28.60600375 -3.875 25.625 C-5.34683112 22.19072738 -7.54738321 20.61235294 -10.44140625 18.33203125 C-12.3619897 16.69063035 -12.90785006 15.52357918 -13.34375 13.046875 C-13.58228406 9.54042429 -13.71914873 7.02468302 -11.6484375 4.07421875 C-7.96992149 0.67928878 -5.13839887 -0.93425434 0 0 Z " fill="#6E7880" transform="translate(32,44)"/>
<path d="M0 0 C5.94 0 11.88 0 18 0 C18 1.65 18 3.3 18 5 C14.04 5 10.08 5 6 5 C6 6.32 6 7.64 6 9 C9.63 9 13.26 9 17 9 C17 10.65 17 12.3 17 14 C13.37 14 9.74 14 6 14 C6 15.32 6 16.64 6 18 C9.96 18 13.92 18 18 18 C18 19.65 18 21.3 18 23 C12.06 23 6.12 23 0 23 C0 15.41 0 7.82 0 0 Z " fill="#5E6972" transform="translate(165,26)"/>
<path d="M0 0 C4.23978982 2.57596792 7.74797484 6.76548093 9.9609375 11.19140625 C10.65487151 18.58578501 10.65731616 25.16943684 5.9609375 31.19140625 C0.52981624 36.80718563 -5.82068546 41.48719667 -12.0390625 46.19140625 C-11.7090625 47.84140625 -11.3790625 49.49140625 -11.0390625 51.19140625 C-9.3890625 51.19140625 -7.7390625 51.19140625 -6.0390625 51.19140625 C-6.0390625 49.21140625 -6.0390625 47.23140625 -6.0390625 45.19140625 C-5.0490625 44.69640625 -5.0490625 44.69640625 -4.0390625 44.19140625 C-2.59461806 50.45066551 -2.59461806 50.45066551 -4.5390625 53.69140625 C-7.0390625 55.19140625 -7.0390625 55.19140625 -10.6640625 55.12890625 C-14.0390625 54.19140625 -14.0390625 54.19140625 -16.0390625 51.19140625 C-16.44140625 48.28125 -16.44140625 48.28125 -16.0390625 45.19140625 C-14.16796875 42.8828125 -14.16796875 42.8828125 -11.6015625 40.75390625 C-10.6940625 39.985625 -9.7865625 39.21734375 -8.8515625 38.42578125 C-6.30226051 36.40050244 -3.71419052 34.44618892 -1.1015625 32.50390625 C2.49466072 29.71460944 4.66184747 27.69491836 5.9609375 23.19140625 C6.59095684 17.79585601 6.66854569 13.60662263 4.2109375 8.69140625 C0.86419093 4.97279895 -1.96471898 2.38390658 -7.16015625 2.05859375 C-8.30677734 2.06246094 -8.30677734 2.06246094 -9.4765625 2.06640625 C-10.23839844 2.06382813 -11.00023438 2.06125 -11.78515625 2.05859375 C-13.99222109 2.1886461 -15.91875526 2.58284426 -18.0390625 3.19140625 C-17.7265625 1.25390625 -17.7265625 1.25390625 -17.0390625 -0.80859375 C-11.25159451 -2.73774975 -5.59375412 -2.28835396 0 0 Z " fill="#707B83" transform="translate(106.0390625,36.80859375)"/>
<path d="M0 0 C3.6578218 2.03993908 5.66946174 3.50419262 8 7 C8.4744582 12.12414854 8.00909641 14.8617169 5 19 C2.90545988 20.93114129 0.66694692 22.62356532 -1.625 24.3125 C-2.5221875 24.9940918 -2.5221875 24.9940918 -3.4375 25.68945312 C-7.83828712 29 -7.83828712 29 -9 29 C-9.3046875 26.76171875 -9.3046875 26.76171875 -9 24 C-6.8828125 21.83203125 -6.8828125 21.83203125 -4.125 19.8125 C-3.22007813 19.13832031 -2.31515625 18.46414062 -1.3828125 17.76953125 C-0.59648438 17.18558594 0.18984375 16.60164063 1 16 C3.29827312 14.12061828 3.29827312 14.12061828 3.3125 11.0625 C3.22697575 8.07739953 3.22697575 8.07739953 1.875 6.125 C-0.82606086 4.50436349 -2.90658992 4.74221583 -6 5 C-6.99 5.33 -7.98 5.66 -9 6 C-8.625 3.5625 -8.625 3.5625 -8 1 C-5.13391871 -0.43304064 -3.18699217 -0.30644155 0 0 Z " fill="#F2F3F4" transform="translate(99,44)"/>
<path d="M0 0 C1.87248885 1.47037085 3.56194665 3.06197544 5.2890625 4.69921875 C7.10268206 6.30995157 7.10268206 6.30995157 10.4375 6.375 C11.283125 6.25125 12.12875 6.1275 13 6 C12.6875 8.375 12.6875 8.375 12 11 C9 13 9 13 6.625 12.8125 C4 12 4 12 1.6875 10.4375 C-2.04784848 8.4395229 -4.79301742 8.85976725 -9 9 C-10 8 -10 8 -10.25 5.125 C-10 2 -10 2 -8.9375 0.0625 C-5.64955693 -1.74056555 -3.53686336 -1.00211129 0 0 Z " fill="#F2F3F4" transform="translate(67,12)"/>
<path d="M0 0 C2.31 0 4.62 0 7 0 C7.33 1.32 7.66 2.64 8 4 C10.31 4 12.62 4 15 4 C15 4.99 15 5.98 15 7 C15.391875 6.505 15.78375 6.01 16.1875 5.5 C18.55091715 3.54406857 20.01435003 3.75792027 23 4 C23 4.66 23 5.32 23 6 C21.68 6 20.36 6 19 6 C19 6.99 19 7.98 19 9 C20.32 9 21.64 9 23 9 C23 9.66 23 10.32 23 11 C15.33333333 11 7.66666667 11 0 11 C0 7.37 0 3.74 0 0 Z " fill="#9DA5AA" transform="translate(184,81)"/>
<path d="M0 0 C0.99 0.66 1.98 1.32 3 2 C2.67 3.32 2.34 4.64 2 6 C1.34 5.67 0.68 5.34 0 5 C-3 4.75 -3 4.75 -6 5 C-8.33204711 6.92642608 -8.33204711 6.92642608 -8.4375 10.3125 C-7.88198244 14.99471945 -6.5853949 16.03815204 -3 19 C-2.17435547 19.63228516 -2.17435547 19.63228516 -1.33203125 20.27734375 C0.16815265 21.44969649 1.58972023 22.72090905 3 24 C3 25.32 3 26.64 3 28 C-0.44127061 26.4554297 -3.18696142 24.417316 -6.125 22.0625 C-6.99382813 21.37285156 -7.86265625 20.68320313 -8.7578125 19.97265625 C-11.16046656 17.85882297 -12.75536558 16.13657583 -13.44140625 12.94921875 C-13.62802821 9.46360213 -13.70556084 7.00039173 -11.64453125 4.078125 C-7.97391109 0.67490101 -5.13607818 -0.9338324 0 0 Z " fill="#EDEFF0" transform="translate(32,44)"/>
<path d="M0 0 C2.97 0 5.94 0 9 0 C9 1.32 9 2.64 9 4 C12.465 3.505 12.465 3.505 16 3 C16.38063221 5.3260857 16.71269945 7.66055264 17 10 C15.24440058 11.75559942 12.96417558 11.13221919 10.62890625 11.13671875 C9.92636719 11.13285156 9.22382813 11.12898438 8.5 11.125 C7.79746094 11.12886719 7.09492188 11.13273437 6.37109375 11.13671875 C1.12661378 11.12661378 1.12661378 11.12661378 0 10 C-0.07205511 8.31391034 -0.08386068 6.62499341 -0.0625 4.9375 C-0.05347656 4.01839844 -0.04445312 3.09929687 -0.03515625 2.15234375 C-0.02355469 1.44207031 -0.01195312 0.73179688 0 0 Z " fill="#D2D5D8" transform="translate(142,68)"/>
<path d="M0 0 C1.33333333 0.33333333 2.66666667 0.66666667 4 1 C4.721875 1.144375 5.44375 1.28875 6.1875 1.4375 C6.785625 1.623125 7.38375 1.80875 8 2 C8.33 2.66 8.66 3.32 9 4 C9.66 2.68 10.32 1.36 11 0 C11.65659814 5.25278515 10.07349844 8.1524079 7.38671875 12.4609375 C6.70029297 13.22277344 6.70029297 13.22277344 6 14 C5.01 14 4.02 14 3 14 C3.66 15.32 4.32 16.64 5 18 C2.57477793 20.42522207 1.8279321 20.29629254 -1.5 20.3125 C-2.2940625 20.32925781 -3.088125 20.34601562 -3.90625 20.36328125 C-4.5971875 20.24339844 -5.288125 20.12351562 -6 20 C-6.66 19.01 -7.32 18.02 -8 17 C-4.94736336 16.01879536 -3.05263664 16.01879536 0 17 C0.33 16.34 0.66 15.68 1 15 C0.401875 14.87625 -0.19625 14.7525 -0.8125 14.625 C-3 14 -3 14 -6 12 C-5.67 11.34 -5.34 10.68 -5 10 C-4.21625 10.20625 -3.4325 10.4125 -2.625 10.625 C-1.75875 10.74875 -0.8925 10.8725 0 11 C0.66 10.34 1.32 9.68 2 9 C1.34 8.67 0.68 8.34 0 8 C0 5.36 0 2.72 0 0 Z " fill="#747E85" transform="translate(64,29)"/>
<path d="M0 0 C1.32 0 2.64 0 4 0 C4.33 0.66 4.66 1.32 5 2 C7.32156597 2.40729228 9.6568787 2.74438677 12 3 C12 3.66 12 4.32 12 5 C10.68 5 9.36 5 8 5 C8 5.99 8 6.98 8 8 C9.32 8 10.64 8 12 8 C11.67 8.99 11.34 9.98 11 11 C6.05 11 1.1 11 -4 11 C-6.125 3.25 -6.125 3.25 -5 1 C-3.35 1.33 -1.7 1.66 0 2 C0 1.34 0 0.68 0 0 Z " fill="#CED1D4" transform="translate(203,68)"/>
<path d="M0 0 C1.65 0.33 3.3 0.66 5 1 C6.06218494 5.01269867 5.77555668 7.94987067 5 12 C5 13.32 5 14.64 5 16 C5.66 16 6.32 16 7 16 C6.67 17.32 6.34 18.64 6 20 C5.01 19.67 4.02 19.34 3 19 C2.67 18.01 2.34 17.02 2 16 C1.34 15.67 0.68 15.34 0 15 C0 15.66 0 16.32 0 17 C-1.65 16.67 -3.3 16.34 -5 16 C-4.67 15.01 -4.34 14.02 -4 13 C-3.34 13 -2.68 13 -2 13 C-1.67 12.01 -1.34 11.02 -1 10 C-2.32 10 -3.64 10 -5 10 C-4.814375 9.4225 -4.62875 8.845 -4.4375 8.25 C-3.95976454 5.79307475 -4.24270636 4.35602466 -5 2 C-3.515 2.99 -3.515 2.99 -2 4 C-1.34 2.68 -0.68 1.36 0 0 Z " fill="#66717A" transform="translate(71,74)"/>
<path d="M0 0 C1.98 0 3.96 0 6 0 C6 7.59 6 15.18 6 23 C4.02 23 2.04 23 0 23 C0 15.41 0 7.82 0 0 Z " fill="#5E6A72" transform="translate(154,26)"/>
<path d="M0 0 C1.98 0 3.96 0 6 0 C6 7.59 6 15.18 6 23 C4.02 23 2.04 23 0 23 C0 15.41 0 7.82 0 0 Z " fill="#5D6972" transform="translate(143,26)"/>
<path d="M0 0 C7.76785714 -0.66964286 7.76785714 -0.66964286 11.375 2.25 C15.04432076 6.09405032 15.86003037 7.55364713 16.375 12.875 C16.21102168 17.31881248 14.97785251 19.59673999 12 23 C8.75910306 25.79387667 5.4195127 28.42883969 2 31 C0.68 30.34 -0.64 29.68 -2 29 C-1.15695313 28.39671875 -0.31390625 27.7934375 0.5546875 27.171875 C1.66177356 26.36501567 2.76852707 25.55769992 3.875 24.75 C4.43058594 24.35425781 4.98617187 23.95851563 5.55859375 23.55078125 C8.57501846 21.3338908 10.79021377 19.60003055 12 16 C12.54747101 11.69844209 12.54056201 9.76016532 10 6.1875 C6.27793325 3.47349299 3.50031206 2.83904123 -1 2 C-0.67 1.34 -0.34 0.68 0 0 Z " fill="#6E7981" transform="translate(94,42)"/>
<path d="M0 0 C2.00720923 0.28674418 4.0085944 0.61866701 6 1 C5.67 2.32 5.34 3.64 5 5 C6.32 4.34 7.64 3.68 9 3 C9 3.99 9 4.98 9 6 C8.34 6 7.68 6 7 6 C7 6.66 7 7.32 7 8 C7.66 8 8.32 8 9 8 C9 8.66 9 9.32 9 10 C7.68 9.67 6.36 9.34 5 9 C5.66 10.32 6.32 11.64 7 13 C7.66 13 8.32 13 9 13 C8.67 14.32 8.34 15.64 8 17 C7.01 17 6.02 17 5 17 C5 16.34 5 15.68 5 15 C4.1028125 15.9590625 4.1028125 15.9590625 3.1875 16.9375 C1 19 1 19 -2 20 C-2 18.68 -2 17.36 -2 16 C-1.34 16 -0.68 16 0 16 C-0.33 15.01 -0.66 14.02 -1 13 C-0.67 12.01 -0.34 11.02 0 10 C-0.13174146 7.73884736 -0.13174146 7.73884736 -0.5 5.375 C-0.70692356 3.92183224 -0.88341126 2.46318863 -1 1 C-0.67 0.67 -0.34 0.34 0 0 Z " fill="#6E7880" transform="translate(50,74)"/>
<path d="M0 0 C0.66 0 1.32 0 2 0 C2.02505615 0.85754883 2.0501123 1.71509766 2.07592773 2.59863281 C2.17123412 5.7893437 2.27045751 8.97990219 2.37231445 12.17041016 C2.4155455 13.54959378 2.45722866 14.92882685 2.49731445 16.30810547 C2.55530403 18.29406938 2.61937723 20.27985269 2.68359375 22.265625 C2.72025146 23.45961914 2.75690918 24.65361328 2.79467773 25.88378906 C2.96208994 28.42463255 3.26317859 30.5771424 4 33 C2.0625 32.25 2.0625 32.25 0 31 C-0.8125 28.9375 -0.8125 28.9375 -1 27 C-0.67 26.67 -0.34 26.34 0 26 C0.08651611 24.58429877 0.10704904 23.164405 0.09765625 21.74609375 C0.09443359 20.89208984 0.09121094 20.03808594 0.08789062 19.15820312 C0.07951172 18.26037109 0.07113281 17.36253906 0.0625 16.4375 C0.05798828 15.53580078 0.05347656 14.63410156 0.04882812 13.70507812 C0.03700225 11.46998686 0.0205222 9.23502563 0 7 C-3.21639654 5.25434889 -5.32013404 4.795563 -9 5 C-9.66 6.98 -10.32 8.96 -11 11 C-11.66 11 -12.32 11 -13 11 C-13.36103152 4.6217765 -13.36103152 4.6217765 -11.875 2.0625 C-9.1769493 0.53360461 -7.04470288 0.74087635 -4 1 C-3.34 1.33 -2.68 1.66 -2 2 C-2 2.66 -2 3.32 -2 4 C-1.34 4 -0.68 4 0 4 C0 2.68 0 1.36 0 0 Z " fill="#67727A" transform="translate(36,47)"/>
<path d="M0 0 C0.86625 0.04125 1.7325 0.0825 2.625 0.125 C4.83372638 0.125 7.04377359 0.1050584 9.25 0 C11.625 0.125 11.625 0.125 13.625 2.125 C13.25 4.75 13.25 4.75 12.625 7.125 C10.3125 7.8125 10.3125 7.8125 7.625 8.125 C5.8125 6.6875 5.8125 6.6875 4.625 5.125 C3.635 6.61 3.635 6.61 2.625 8.125 C-0.345 7.63 -0.345 7.63 -3.375 7.125 C-4 4.75 -4 4.75 -4.375 2.125 C-2.375 0.125 -2.375 0.125 0 0 Z " fill="#778189" transform="translate(256.375,70.875)"/>
<path d="M0 0 C4.0000937 2.33802693 6.86978302 4.9839437 8.96484375 9.1484375 C9.5238278 13.54980743 9.38825119 17.73962355 8.96484375 22.1484375 C8.63484375 22.1484375 8.30484375 22.1484375 7.96484375 22.1484375 C7.866875 21.49617188 7.76890625 20.84390625 7.66796875 20.171875 C6.54863404 13.62955659 5.05629013 8.86516311 -0.09765625 4.3359375 C-3.25123242 2.40310049 -5.85593912 2.01123947 -9.47265625 2.0234375 C-10.23449219 2.02085938 -10.99632813 2.01828125 -11.78125 2.015625 C-13.98831484 2.14567735 -15.91484901 2.53987551 -18.03515625 3.1484375 C-17.72265625 1.2109375 -17.72265625 1.2109375 -17.03515625 -0.8515625 C-11.28293427 -2.76896983 -5.53650062 -2.39001413 0 0 Z " fill="#67727A" transform="translate(106.03515625,36.8515625)"/>
<path d="M0 0 C1.32 0 2.64 0 4 0 C4 3.63 4 7.26 4 11 C1.36 11 -1.28 11 -4 11 C-6.42857143 4.71428571 -6.42857143 4.71428571 -5 1 C-3.35 1.33 -1.7 1.66 0 2 C0 1.34 0 0.68 0 0 Z " fill="#CCCFD2" transform="translate(170,54)"/>
<path d="M0 0 C1.98 0 3.96 0 6 0 C6 0.66 6 1.32 6 2 C5.01 2 4.02 2 3 2 C3.33 3.98 3.66 5.96 4 8 C3.01 8.495 3.01 8.495 2 9 C2 8.01 2 7.02 2 6 C1.01 6 0.02 6 -1 6 C-1.33 7.32 -1.66 8.64 -2 10 C-2.33 8.35 -2.66 6.7 -3 5 C-3.99 4.67 -4.98 4.34 -6 4 C-6 6.64 -6 9.28 -6 12 C-5.01 12.33 -4.02 12.66 -3 13 C-4.3125 14.5 -4.3125 14.5 -6 16 C-6.99 16 -7.98 16 -9 16 C-9 11.38 -9 6.76 -9 2 C-7.35 1.67 -5.7 1.34 -4 1 C-4 1.66 -4 2.32 -4 3 C-2.68 3 -1.36 3 0 3 C0 2.01 0 1.02 0 0 Z " fill="#606C74" transform="translate(70,25)"/>
<path d="M0 0 C0.33 0.66 0.66 1.32 1 2 C1.99 2.33 2.98 2.66 4 3 C3.01 3.33 2.02 3.66 1 4 C-0.20882096 6.00016466 -0.20882096 6.00016466 -1 8 C-1.66 7.34 -2.32 6.68 -3 6 C-2.67 7.32 -2.34 8.64 -2 10 C-2.66 10 -3.32 10 -4 10 C-4 10.99 -4 11.98 -4 13 C-2.68 12.67 -1.36 12.34 0 12 C0 13.32 0 14.64 0 16 C-1 17 -2 18 -3 19 C-1.68 19.66 -0.36 20.32 1 21 C-2.01031744 21.93423645 -2.86650268 22.04449911 -6 21 C-6.16225719 18.24763726 -6.2809328 15.50482524 -6.375 12.75 C-6.42527344 11.97269531 -6.47554687 11.19539063 -6.52734375 10.39453125 C-6.58580565 8.11451704 -6.56911642 6.21135965 -6 4 C-2.9765625 1.453125 -2.9765625 1.453125 0 0 Z " fill="#EAEBEC" transform="translate(70,71)"/>
<path d="M0 0 C1 1 1 1 1.3046875 3.32421875 C0.90803844 6.80761113 -0.19900537 7.62694566 -2.875 9.8125 C-3.59429687 10.41707031 -4.31359375 11.02164063 -5.0546875 11.64453125 C-7 13 -7 13 -9 13 C-9.10824843 11.3973218 -9.18570645 9.79254252 -9.25 8.1875 C-9.29640625 7.29417969 -9.3428125 6.40085937 -9.390625 5.48046875 C-9 3 -9 3 -7.15234375 1.19140625 C-4.5621089 -0.24238981 -2.91866341 -0.31553118 0 0 Z " fill="#F0F1F2" transform="translate(99,51)"/>
<path d="M0 0 C0.99 0 1.98 0 3 0 C3.93423645 3.01031744 4.04449911 3.86650268 3 7 C4.54166642 5.62514468 4.54166642 5.62514468 6 4 C6 3.34 6 2.68 6 2 C7.99954746 1.95745644 10.00041636 1.95919217 12 2 C13 3 13 3 13.0625 6.0625 C13.041875 7.031875 13.02125 8.00125 13 9 C11.948125 8.979375 10.89625 8.95875 9.8125 8.9375 C6.67295096 8.98896802 4.03116604 9.26517187 1 10 C-1.42857143 3.71428571 -1.42857143 3.71428571 0 0 Z " fill="#6E7880" transform="translate(161,69)"/>
<path d="M0 0 C1.37478516 0.01740234 1.37478516 0.01740234 2.77734375 0.03515625 C3.69644531 0.04417969 4.61554688 0.05320313 5.5625 0.0625 C6.27277344 0.07410156 6.98304688 0.08570313 7.71484375 0.09765625 C7.71484375 2.73765625 7.71484375 5.37765625 7.71484375 8.09765625 C6.25691491 8.15165361 4.79841663 8.19044802 3.33984375 8.22265625 C2.52773438 8.24585937 1.715625 8.2690625 0.87890625 8.29296875 C-1.28515625 8.09765625 -1.28515625 8.09765625 -3.28515625 6.09765625 C-3.47265625 3.53515625 -3.47265625 3.53515625 -3.28515625 1.09765625 C-2.28515625 0.09765625 -2.28515625 0.09765625 0 0 Z " fill="#D6D9DB" transform="translate(296.28515625,56.90234375)"/>
<path d="M0 0 C2.625 0.25 2.625 0.25 4.27734375 1.44140625 C6.09070363 3.87498777 5.92935023 5.43834419 5.8125 8.4375 C5.78542969 9.33855469 5.75835937 10.23960938 5.73046875 11.16796875 C5.69566406 11.85503906 5.66085938 12.54210938 5.625 13.25 C2.1095534 11.29697411 -0.85739591 9.42031626 -3.375 6.25 C-3.6875 3.5625 -3.6875 3.5625 -3.375 1.25 C-2.375 0.25 -2.375 0.25 0 0 Z " fill="#F7F7F8" transform="translate(29.375,50.75)"/>
<path d="M0 0 C0.05395478 1.62463842 0.09277195 3.24978541 0.125 4.875 C0.14820313 5.77992187 0.17140625 6.68484375 0.1953125 7.6171875 C0 10 0 10 -2 12 C-5.125 11.625 -5.125 11.625 -8 11 C-8 10.01 -8 9.02 -8 8 C-5.525 8.495 -5.525 8.495 -3 9 C-3 8.34 -3 7.68 -3 7 C-4.65 6.67 -6.3 6.34 -8 6 C-8 4.35 -8 2.7 -8 1 C-2.25 -1.125 -2.25 -1.125 0 0 Z " fill="#79838A" transform="translate(279,71)"/>
<path d="M0 0 C2.31 0.33 4.62 0.66 7 1 C7 4.3 7 7.6 7 11 C6.01 11 5.02 11 4 11 C3.87625 10.360625 3.7525 9.72125 3.625 9.0625 C3.41875 8.381875 3.2125 7.70125 3 7 C2.34 6.67 1.68 6.34 1 6 C1 7.65 1 9.3 1 11 C0.01 11 -0.98 11 -2 11 C-3.35384615 4.6 -3.35384615 4.6 -1.5625 1.5625 C-1.046875 1.046875 -0.53125 0.53125 0 0 Z " fill="#747E86" transform="translate(299,67)"/>
<path d="M0 0 C0.33 0.99 0.66 1.98 1 3 C-0.65 3.33 -2.3 3.66 -4 4 C-4 5.32 -4 6.64 -4 8 C-3.01 8.33 -2.02 8.66 -1 9 C-1 8.34 -1 7.68 -1 7 C-1.66 7 -2.32 7 -3 7 C-3 6.34 -3 5.68 -3 5 C-1.35 5 0.3 5 2 5 C2.125 7.375 2.125 7.375 2 10 C0 12 0 12 -2.4375 12.3125 C-5 12 -5 12 -6.8125 10.875 C-8.55198782 8.12844028 -8.39769128 6.18153026 -8 3 C-5.87141064 -0.36093057 -3.79035926 -0.30732643 0 0 Z " fill="#757F86" transform="translate(249,67)"/>
<path d="M0 0 C1.33333333 0.33333333 2.66666667 0.66666667 4 1 C4.721875 1.144375 5.44375 1.28875 6.1875 1.4375 C6.785625 1.623125 7.38375 1.80875 8 2 C8.33 2.66 8.66 3.32 9 4 C9.66 2.68 10.32 1.36 11 0 C11.50423019 5.29441695 10.18923033 7.81413519 7 12 C6.21625 11.525625 5.4325 11.05125 4.625 10.5625 C3.11051322 9.66101977 1.5764103 8.78820515 0 8 C0 5.36 0 2.72 0 0 Z " fill="#778188" transform="translate(64,29)"/>
<path d="M0 0 C0 5.61 0 11.22 0 17 C-1.65 17.33 -3.3 17.66 -5 18 C-5.66 17.34 -6.32 16.68 -7 16 C-6.01 15.34 -5.02 14.68 -4 14 C-4.7425 13.3503125 -4.7425 13.3503125 -5.5 12.6875 C-7 11 -7 11 -7 8 C-5.68 8.33 -4.36 8.66 -3 9 C-3 8.34 -3 7.68 -3 7 C-3.66 7 -4.32 7 -5 7 C-5 6.34 -5 5.68 -5 5 C-4.34 5 -3.68 5 -3 5 C-3.33 3.68 -3.66 2.36 -4 1 C-1 0 -1 0 0 0 Z " fill="#D3D6D9" transform="translate(62,75)"/>
<path d="M0 0 C0.99 0 1.98 0 3 0 C3 3.3 3 6.6 3 10 C0.36 10 -2.28 10 -5 10 C-6.125 5.25 -6.125 5.25 -5 3 C-3.35 3 -1.7 3 0 3 C0 2.01 0 1.02 0 0 Z " fill="#707A82" transform="translate(181,68)"/>
<path d="M0 0 C3 1 3 1 4 3 C3.113125 3.37125 2.22625 3.7425 1.3125 4.125 C-3.61885764 6.91633451 -6.76702615 10.7220618 -9 16 C-9.33 15.67 -9.66 15.34 -10 15 C-10.33 17.31 -10.66 19.62 -11 22 C-11.33 22 -11.66 22 -12 22 C-12.6291781 15.07904093 -11.23108051 10.56054721 -7 5 C-4.72781971 2.81731478 -2.7997985 1.55544361 0 0 Z " fill="#727D84" transform="translate(21,36)"/>
<path d="M0 0 C1.65 0 3.3 0 5 0 C5 0.99 5 1.98 5 3 C5.391875 2.505 5.78375 2.01 6.1875 1.5 C8.55091715 -0.45593143 10.01435003 -0.24207973 13 0 C13 0.66 13 1.32 13 2 C11.68 2 10.36 2 9 2 C9 2.99 9 3.98 9 5 C10.32 5 11.64 5 13 5 C13 5.66 13 6.32 13 7 C8.33333333 7 3.66666667 7 -1 7 C-1 3 -1 3 0 0 Z " fill="#6D7880" transform="translate(194,85)"/>
<path d="M0 0 C0.99 0 1.98 0 3 0 C3 3.3 3 6.6 3 10 C0.36 10 -2.28 10 -5 10 C-5.625 7.625 -5.625 7.625 -6 5 C-5.34 4.34 -4.68 3.68 -4 3 C-2.68 3 -1.36 3 0 3 C0 2.01 0 1.02 0 0 Z " fill="#68737B" transform="translate(216,54)"/>
<path d="M0 0 C2.97 0 5.94 0 9 0 C9 0.66 9 1.32 9 2 C7.35 2 5.7 2 4 2 C4 2.66 4 3.32 4 4 C5.32 4 6.64 4 8 4 C8 4.66 8 5.32 8 6 C6.35 6 4.7 6 3 6 C3 6.66 3 7.32 3 8 C4.98 8 6.96 8 9 8 C9 8.66 9 9.32 9 10 C6.03 10 3.06 10 0 10 C0 6.7 0 3.4 0 0 Z " fill="#6F7982" transform="translate(142,68)"/>
<path d="M0 0 C0.33 0 0.66 0 1 0 C1.01417969 0.556875 1.02835938 1.11375 1.04296875 1.6875 C1.59484805 10.51756876 5.60247225 16.15083177 12 22 C10.68 22.33 9.36 22.66 8 23 C6.68181446 21.56771184 5.37063296 20.12897516 4.0625 18.6875 C3.33160156 17.88699219 2.60070312 17.08648437 1.84765625 16.26171875 C-0.93992515 12.84943623 -1.1374312 10.13890082 -1.125 5.875 C-1.12757812 4.98554687 -1.13015625 4.09609375 -1.1328125 3.1796875 C-1 1 -1 1 0 0 Z " fill="#67727B" transform="translate(11,50)"/>
<path d="M0 0 C-0.99 0.33 -1.98 0.66 -3 1 C-3 1.66 -3 2.32 -3 3 C-2.34 3 -1.68 3 -1 3 C-1 3.66 -1 4.32 -1 5 C-1.66 5 -2.32 5 -3 5 C-3 5.99 -3 6.98 -3 8 C-4.9914056 8.38133299 -6.99279077 8.71325582 -9 9 C-10 8 -10 8 -10.25 5.125 C-10 2 -10 2 -8.9375 0.0625 C-5.87530347 -1.61676907 -3.30629059 -0.68621125 0 0 Z " fill="#ECEDEE" transform="translate(67,12)"/>
<path d="M0 0 C0.99 0 1.98 0 3 0 C3.33 3.63 3.66 7.26 4 11 C1.69 11 -0.62 11 -3 11 C-3 6.17156286 -2.67309907 4.0096486 0 0 Z " fill="#818B91" transform="translate(291,67)"/>
<path d="M0 0 C3.63 0 7.26 0 11 0 C11 2.31 11 4.62 11 7 C10.34 7 9.68 7 9 7 C9 5.35 9 3.7 9 2 C8.34 2 7.68 2 7 2 C7 3.98 7 5.96 7 8 C6.01 8 5.02 8 4 8 C3.67 6.35 3.34 4.7 3 3 C2.67 4.32 2.34 5.64 2 7 C1.34 7 0.68 7 0 7 C0 4.69 0 2.38 0 0 Z " fill="#6E7981" transform="translate(271,57)"/>
<path d="M0 0 C0.66 0.99 1.32 1.98 2 3 C-0.31 3 -2.62 3 -5 3 C-5 6.3 -5 9.6 -5 13 C-5.99 12.67 -6.98 12.34 -8 12 C-8 9.69 -8 7.38 -8 5 C-8.66 4.67 -9.32 4.34 -10 4 C-9.625 2.0625 -9.625 2.0625 -9 0 C-5.85135005 -1.57432497 -3.35512575 -0.71895552 0 0 Z " fill="#AFB5BA" transform="translate(67,24)"/>
<path d="M0 0 C0.66 0 1.32 0 2 0 C2 3.3 2 6.6 2 10 C-0.33294775 10.04241723 -2.66702567 10.04092937 -5 10 C-6 9 -6 9 -6.125 6.5 C-6 4 -6 4 -5 3 C-3.33382885 2.95936168 -1.66611905 2.957279 0 3 C0 2.01 0 1.02 0 0 Z " fill="#5F6B74" transform="translate(148,82)"/>
<path d="M0 0 C1.98 0 3.96 0 6 0 C6.1953125 6.0546875 6.1953125 6.0546875 6 8 C4 10 4 10 0.375 10.125 C-0.73875 10.08375 -1.8525 10.0425 -3 10 C-3.33 8.35 -3.66 6.7 -4 5 C-3.01 5 -2.02 5 -1 5 C-0.67 5.66 -0.34 6.32 0 7 C0.66 7 1.32 7 2 7 C2.33 5.35 2.66 3.7 3 2 C2.01 2 1.02 2 0 2 C0 1.34 0 0.68 0 0 Z " fill="#5E6A73" transform="translate(168,82)"/>
<path d="M0 0 C3 0.125 3 0.125 4 1.125 C4.1875 3.5625 4.1875 3.5625 4 6.125 C3.34 6.785 2.68 7.445 2 8.125 C-2.55555556 7.56944444 -2.55555556 7.56944444 -4 6.125 C-4.125 3.625 -4.125 3.625 -4 1.125 C-3 0.125 -3 0.125 0 0 Z " fill="#67727A" transform="translate(309,56.875)"/>
<path d="M0 0 C3 0.125 3 0.125 4 1.125 C4.1875 3.5625 4.1875 3.5625 4 6.125 C3.34 6.785 2.68 7.445 2 8.125 C-2.55555556 7.56944444 -2.55555556 7.56944444 -4 6.125 C-4.125 3.625 -4.125 3.625 -4 1.125 C-3 0.125 -3 0.125 0 0 Z " fill="#707A82" transform="translate(258,56.875)"/>
<path d="M0 0 C2.31 0 4.62 0 7 0 C7.625 2.375 7.625 2.375 8 5 C6 7 6 7 2.875 7.125 C1.451875 7.063125 1.451875 7.063125 0 7 C-1.125 2.25 -1.125 2.25 0 0 Z " fill="#90989E" transform="translate(209,85)"/>
<path d="M0 0 C1.4540625 0.0309375 1.4540625 0.0309375 2.9375 0.0625 C3.86815133 2.66832371 4.08667407 3.70448224 3 6.3125 C2.4740625 7.17875 2.4740625 7.17875 1.9375 8.0625 C-2.9375 7.1875 -2.9375 7.1875 -4.0625 6.0625 C-4.1875 3.5625 -4.1875 3.5625 -4.0625 1.0625 C-3.0625 0.0625 -3.0625 0.0625 0 0 Z " fill="#7B858C" transform="translate(156.0625,84.9375)"/>
<path d="M0 0 C0.33 0 0.66 0 1 0 C1 5.61 1 11.22 1 17 C2.65 17.33 4.3 17.66 6 18 C6 18.33 6 18.66 6 19 C1.71 19 -2.58 19 -7 19 C-4 17 -4 17 -1 17 C-1.01160156 15.85660156 -1.02320313 14.71320313 -1.03515625 13.53515625 C-1.04453288 12.04427246 -1.05363321 10.55338691 -1.0625 9.0625 C-1.07087891 8.30775391 -1.07925781 7.55300781 -1.08789062 6.77539062 C-1.09652441 4.85005687 -1.05224333 2.92464419 -1 1 C-0.67 0.67 -0.34 0.34 0 0 Z " fill="#6F7A82" transform="translate(63,75)"/>
<path d="M0 0 C2.5625 0.1875 2.5625 0.1875 4.5625 2.1875 C4.1875 4.8125 4.1875 4.8125 3.5625 7.1875 C1.1875 7.8125 1.1875 7.8125 -1.4375 8.1875 C-3.4375 6.1875 -3.4375 6.1875 -3.625 3.625 C-3.37291261 0.34786389 -3.27713611 0.25208739 0 0 Z " fill="#6D7880" transform="translate(201.4375,56.8125)"/>
<path d="M0 0 C2.5 0.125 2.5 0.125 3.5 1.125 C3.54080783 3.12458364 3.54254356 5.12545254 3.5 7.125 C1.1875 7.8125 1.1875 7.8125 -1.5 8.125 C-3.375 6.9375 -3.375 6.9375 -4.5 5.125 C-4.08147866 1.5675686 -3.71072057 0.18553603 0 0 Z " fill="#6F7981" transform="translate(224.5,56.875)"/>
<path d="M0 0 C1.99954746 -0.04254356 4.00041636 -0.04080783 6 0 C7 1 7 1 7.0625 4.0625 C7.041875 5.031875 7.02125 6.00125 7 7 C4.69 7 2.38 7 0 7 C-0.93423645 3.98968256 -1.04449911 3.13349732 0 0 Z " fill="#6D787F" transform="translate(176,85)"/>
<path d="M0 0 C2.33294775 -0.04241723 4.66702567 -0.04092937 7 0 C8 1 8 1 8.0625 4.5625 C8.041875 5.696875 8.02125 6.83125 8 8 C7.01 8 6.02 8 5 8 C5 6.02 5 4.04 5 2 C4.34 2 3.68 2 3 2 C3 3.98 3 5.96 3 8 C2.01 8 1.02 8 0 8 C0 5.36 0 2.72 0 0 Z " fill="#788289" transform="translate(238,57)"/>
<path d="M0 0 C0.33 0 0.66 0 1 0 C1.34375 2.6640625 1.34375 2.6640625 1 6 C-0.81415281 8.09098782 -2.38894401 9.65814611 -4.5 11.375 C-5.02464844 11.82488281 -5.54929687 12.27476563 -6.08984375 12.73828125 C-7.38020164 13.84095072 -8.68843439 14.92264253 -10 16 C-10.66 14.68 -11.32 13.36 -12 12 C-11.38511719 11.55269531 -10.77023438 11.10539062 -10.13671875 10.64453125 C-4.12335754 6.17745715 -4.12335754 6.17745715 0 0 Z " fill="#6B767E" transform="translate(102,52)"/>
<path d="M0 0 C2.33294775 -0.04241723 4.66702567 -0.04092937 7 0 C8 1 8 1 8.0625 4.0625 C8.041875 5.031875 8.02125 6.00125 8 7 C7.01 7 6.02 7 5 7 C5 5.35 5 3.7 5 2 C4.34 2 3.68 2 3 2 C3 3.98 3 5.96 3 8 C2.01 8 1.02 8 0 8 C0 5.36 0 2.72 0 0 Z " fill="#727C84" transform="translate(147,57)"/>
<path d="M0 0 C7.76785714 -0.66964286 7.76785714 -0.66964286 11.4375 2.25 C14.76447498 5.82041217 14.76447498 5.82041217 15 9 C14.01 9 13.02 9 12 9 C11.278125 8.21625 10.55625 7.4325 9.8125 6.625 C6.21226529 3.26478094 3.77647762 2.89052973 -1 2 C-0.67 1.34 -0.34 0.68 0 0 Z " fill="#67727B" transform="translate(94,42)"/>
<path d="M0 0 C0.99 0 1.98 0 3 0 C3.33 0.66 3.66 1.32 4 2 C5.32 1.34 6.64 0.68 8 0 C7.39301257 4.12751449 5.96189209 7.3321148 4 11 C3.01 11 2.02 11 1 11 C1.20625 10.29875 1.4125 9.5975 1.625 8.875 C2.07850357 5.39813928 1.27540277 3.22601877 0 0 Z " fill="#717C83" transform="translate(228,71)"/>
<path d="M0 0 C1.98 0 3.96 0 6 0 C6 2.31 6 4.62 6 7 C4.02 7 2.04 7 0 7 C-0.93423645 3.98968256 -1.04449911 3.13349732 0 0 Z " fill="#727C84" transform="translate(316,71)"/>
<path d="M0 0 C1.98 0 3.96 0 6 0 C6 2.31 6 4.62 6 7 C4.02 7 2.04 7 0 7 C-0.93423645 3.98968256 -1.04449911 3.13349732 0 0 Z " fill="#727C84" transform="translate(217,71)"/>
<path d="M0 0 C0.99 0 1.98 0 3 0 C3 1.65 3 3.3 3 5 C3.66 5 4.32 5 5 5 C5 3.35 5 1.7 5 0 C5.99 0 6.98 0 8 0 C8 2.31 8 4.62 8 7 C5.66705225 7.04241723 3.33297433 7.04092937 1 7 C0 6 0 6 -0.0625 2.9375 C-0.041875 1.968125 -0.02125 0.99875 0 0 Z " fill="#6D787F" transform="translate(182,57)"/>
<path d="M0 0 C1.32 0 2.64 0 4 0 C4 3.63 4 7.26 4 11 C2.68 11 1.36 11 0 11 C0 7.37 0 3.74 0 0 Z " fill="#8B939A" transform="translate(233,54)"/>
<path d="M0 0 C1.32 0 2.64 0 4 0 C4 3.63 4 7.26 4 11 C2.68 11 1.36 11 0 11 C0 7.37 0 3.74 0 0 Z " fill="#8A9399" transform="translate(142,54)"/>
<path d="M0 0 C2.625 -0.1875 2.625 -0.1875 5 0 C4.67 1.65 4.34 3.3 4 5 C3.34 5 2.68 5 2 5 C2 6.98 2 8.96 2 11 C1.01 11 0.02 11 -1 11 C-2.25 3.375 -2.25 3.375 0 0 Z " fill="#778188" transform="translate(249,54)"/>
<path d="M0 0 C1.98 0 3.96 0 6 0 C6 2.31 6 4.62 6 7 C4.35 7.33 2.7 7.66 1 8 C0.17361624 5.10765685 0 3.11257569 0 0 Z " fill="#757F86" transform="translate(157,57)"/>
<path d="M0 0 C1.2065625 0.0309375 1.2065625 0.0309375 2.4375 0.0625 C2.7675 2.3725 3.0975 4.6825 3.4375 7.0625 C1.1275 7.0625 -1.1825 7.0625 -3.5625 7.0625 C-3.60504356 5.06295254 -3.60330783 3.06208364 -3.5625 1.0625 C-2.5625 0.0625 -2.5625 0.0625 0 0 Z " fill="#7B858C" transform="translate(155.5625,70.9375)"/>
<path d="M0 0 C1.66611905 -0.042721 3.33382885 -0.04063832 5 0 C6 1 6 1 6.0625 4.0625 C6.041875 5.031875 6.02125 6.00125 6 7 C3.69 7 1.38 7 -1 7 C-0.67 4.69 -0.34 2.38 0 0 Z " fill="#6B767E" transform="translate(285,57)"/>
<path d="M0 0 C0.33 0 0.66 0 1 0 C1.31461385 7.09629025 1.44572039 12.68284595 -2 19 C-2.99 18.67 -3.98 18.34 -5 18 C-4.690625 17.195625 -4.38125 16.39125 -4.0625 15.5625 C-2.99479864 11.98256016 -2.59979081 8.75697198 -2.34375 5.05078125 C-2 3 -2 3 0 0 Z " fill="#757F86" transform="translate(115,48)"/>
<path d="M0 0 C0.99 0 1.98 0 3 0 C3 0.66 3 1.32 3 2 C3.66 2 4.32 2 5 2 C5 2.66 5 3.32 5 4 C4.34 4 3.68 4 3 4 C3 4.99 3 5.98 3 7 C3.66 7 4.32 7 5 7 C5 7.99 5 8.98 5 10 C3.68 9.67 2.36 9.34 1 9 C-1.125 2.25 -1.125 2.25 0 0 Z " fill="#707B82" transform="translate(192,55)"/>
<path d="M0 0 C0.33 0 0.66 0 1 0 C1.66 3.3 2.32 6.6 3 10 C1.02 10.99 1.02 10.99 -1 12 C-2.125 10.25 -2.125 10.25 -3 8 C-2.125 5.75 -2.125 5.75 -1 4 C-1.66 3.67 -2.32 3.34 -3 3 C-2.01 3 -1.02 3 0 3 C0 2.01 0 1.02 0 0 Z " fill="#D1D5D7" transform="translate(48,76)"/>
<path d="M0 0 C0.99 1.32 1.98 2.64 3 4 C2.01 4.495 2.01 4.495 1 5 C1 5.99 1 6.98 1 8 C2.32 7.67 3.64 7.34 5 7 C5 8.32 5 9.64 5 11 C4.34 11.66 3.68 12.32 3 13 C2.67 12.67 2.34 12.34 2 12 C1.34 12.99 0.68 13.98 0 15 C0 10.05 0 5.1 0 0 Z " fill="#F2F3F4" transform="translate(65,76)"/>
<path d="M0 0 C0.78375 0.04125 1.5675 0.0825 2.375 0.125 C2.375 0.785 2.375 1.445 2.375 2.125 C1.055 2.125 -0.265 2.125 -1.625 2.125 C-1.625 3.115 -1.625 4.105 -1.625 5.125 C-0.305 5.125 1.015 5.125 2.375 5.125 C2.045 6.115 1.715 7.105 1.375 8.125 C-0.275 7.795 -1.925 7.465 -3.625 7.125 C-4.25 4.75 -4.25 4.75 -4.625 2.125 C-2.625 0.125 -2.625 0.125 0 0 Z " fill="#788289" transform="translate(212.625,70.875)"/>
<path d="M0 0 C0.99 0 1.98 0 3 0 C3 0.66 3 1.32 3 2 C3.66 2 4.32 2 5 2 C5 2.66 5 3.32 5 4 C4.34 4 3.68 4 3 4 C3 4.99 3 5.98 3 7 C3.66 7 4.32 7 5 7 C5 7.66 5 8.32 5 9 C3.35 9 1.7 9 0 9 C-1.125 2.25 -1.125 2.25 0 0 Z " fill="#707B82" transform="translate(165,55)"/>
<path d="M0 0 C1.0725 0.165 2.145 0.33 3.25 0.5 C6.63617619 0.95149016 8.75681674 0.88450453 12 0 C11.34 1.32 10.68 2.64 10 4 C8.54257537 4.08096803 7.08387193 4.13917774 5.625 4.1875 C4.81289063 4.22230469 4.00078125 4.25710937 3.1640625 4.29296875 C2.44992188 4.19628906 1.73578125 4.09960938 1 4 C0.34 3.01 -0.32 2.02 -1 1 C-0.67 0.67 -0.34 0.34 0 0 Z " fill="#EEEFF0" transform="translate(57,45)"/>
<path d="M0 0 C3.21435753 0.35715084 4.08003864 1.0842512 6.375 3.5 C9.34876295 6.33215519 10.97913254 6.71947436 15 7 C14.67 7.66 14.34 8.32 14 9 C10.65277635 9.58576414 8.65184199 9.44507491 5.8203125 7.51171875 C3.76503945 5.74535419 1.80381763 4.02357206 0 2 C0 1.34 0 0.68 0 0 Z " fill="#657079" transform="translate(64,9)"/>
<path d="M0 0 C1.98 0 3.96 0 6 0 C6 2.33333333 6 4.66666667 6 7 C4.02 7 2.04 7 0 7 C0 4.69 0 2.38 0 0 Z " fill="#6D7880" transform="translate(190,71)"/>
<path d="M0 0 C5.71658336 -0.45732667 8.48649253 0.47726246 13 4 C12.01 4.495 12.01 4.495 11 5 C11 5.99 11 6.98 11 8 C9.68 8 8.36 8 7 8 C7.33 7.34 7.66 6.68 8 6 C7.2575 5.319375 7.2575 5.319375 6.5 4.625 C5 3 5 3 5 1 C3.35 1 1.7 1 0 1 C0 0.67 0 0.34 0 0 Z " fill="#778189" transform="translate(59,20)"/>
<path d="M0 0 C0.99 0.33 1.98 0.66 3 1 C2.34 1 1.68 1 1 1 C1.33 3.64 1.66 6.28 2 9 C0.68 9 -0.64 9 -2 9 C-2.79953138 5.71303767 -3.09658936 4.28976808 -2 1 C-1.34 0.67 -0.68 0.34 0 0 Z " fill="#D1D4D7" transform="translate(78,79)"/>
<path d="M0 0 C2.31 0 4.62 0 7 0 C7 2.31 7 4.62 7 7 C6.34 7 5.68 7 5 7 C5 5.35 5 3.7 5 2 C4.01 2.495 4.01 2.495 3 3 C2.34786708 5.02463255 2.34786708 5.02463255 2 7 C1.34 7 0.68 7 0 7 C0 4.69 0 2.38 0 0 Z " fill="#657078" transform="translate(315,57)"/>
<path d="M0 0 C1.98 0 3.96 0 6 0 C6 0.66 6 1.32 6 2 C4.68 2 3.36 2 2 2 C2 2.99 2 3.98 2 5 C3.32 5 4.64 5 6 5 C6 5.66 6 6.32 6 7 C4.02 7 2.04 7 0 7 C-1.125 2.25 -1.125 2.25 0 0 Z " fill="#727D84" transform="translate(308,71)"/>
<path d="M0 0 C0.85712696 2.39995548 1.22584094 3.51605512 0.125 5.875 C-0.24625 6.57625 -0.6175 7.2775 -1 8 C-1.38290462 9.99110401 -1.72604615 11.99100513 -2 14 C-2.66 14 -3.32 14 -4 14 C-4.63019694 5.96498906 -4.63019694 5.96498906 -2 1.9375 C-1.34 1.298125 -0.68 0.65875 0 0 Z " fill="#67727B" transform="translate(20,45)"/>
<path d="M0 0 C0.99 0 1.98 0 3 0 C3 3.63 3 7.26 3 11 C2.01 11 1.02 11 0 11 C0 7.37 0 3.74 0 0 Z " fill="#79828A" transform="translate(184,81)"/>
<path d="M0 0 C0.99 0 1.98 0 3 0 C4 6.75 4 6.75 4 9 C2.68 9 1.36 9 0 9 C-1.125 2.25 -1.125 2.25 0 0 Z " fill="#6B767E" transform="translate(176,55)"/>
<path d="M0 0 C0.99 0 1.98 0 3 0 C4 6.75 4 6.75 4 9 C2.68 8.67 1.36 8.34 0 8 C-1.125 2.25 -1.125 2.25 0 0 Z " fill="#68737B" transform="translate(198,69)"/>
<path d="M0 0 C0.66 0.33 1.32 0.66 2 1 C1.34 1.66 0.68 2.32 0 3 C0 3.99 0 4.98 0 6 C-1.8125 8.1875 -1.8125 8.1875 -4 10 C-4.99 10 -5.98 10 -7 10 C-5.6062718 5.56541027 -3.39417765 3.12621626 0 0 Z " fill="#E9EAEB" transform="translate(20,40)"/>
<path d="M0 0 C0.33 0 0.66 0 1 0 C1.268125 1.0725 1.53625 2.145 1.8125 3.25 C2.86227827 6.56508928 3.74612328 8.43877646 6 11 C5.34 11.66 4.68 12.32 4 13 C1.4375 11 1.4375 11 -1 8 C-1.14963532 5.10883176 -0.63149193 2.86600184 0 0 Z " fill="#778088" transform="translate(18,84)"/>
<path d="M0 0 C0.33 0 0.66 0 1 0 C1 3.96 1 7.92 1 12 C0.67 10.68 0.34 9.36 0 8 C-0.66 8 -1.32 8 -2 8 C-2.33 8.66 -2.66 9.32 -3 10 C-5 7 -5 7 -5 4 C-2.525 4.495 -2.525 4.495 0 5 C0 3.35 0 1.7 0 0 Z " fill="#F8F9F9" transform="translate(60,79)"/>
<path d="M0 0 C1.66611905 -0.042721 3.33382885 -0.04063832 5 0 C6 1 6 1 6.0625 4.0625 C6.041875 5.031875 6.02125 6.00125 6 7 C3.69 7 1.38 7 -1 7 C-0.67 6.01 -0.34 5.02 0 4 C0.33 4.66 0.66 5.32 1 6 C1.66 6 2.32 6 3 6 C3 4.35 3 2.7 3 1 C2.01 0.67 1.02 0.34 0 0 Z " fill="#636F77" transform="translate(168,71)"/>
<path d="M0 0 C0.66 0.66 1.32 1.32 2 2 C1.42307692 8.57692308 1.42307692 8.57692308 0 10 C-1.99958364 10.04080783 -4.00045254 10.04254356 -6 10 C-5.0409375 9.7215625 -5.0409375 9.7215625 -4.0625 9.4375 C-1.58329642 8.06564692 -1.58329642 8.06564692 -1.3125 4.4375 C-1.1578125 2.7359375 -1.1578125 2.7359375 -1 1 C-0.67 0.67 -0.34 0.34 0 0 Z " fill="#667179" transform="translate(101,81)"/>
<path d="M0 0 C0.66 0 1.32 0 2 0 C2 3.3 2 6.6 2 10 C1.01 10 0.02 10 -1 10 C-1.02689216 8.52093108 -1.04634621 7.04172517 -1.0625 5.5625 C-1.07410156 4.73878906 -1.08570313 3.91507812 -1.09765625 3.06640625 C-1 1 -1 1 0 0 Z " fill="#7E878E" transform="translate(186,68)"/>
<path d="M0 0 C1.2065625 0.0309375 1.2065625 0.0309375 2.4375 0.0625 C2.4375 0.7225 2.4375 1.3825 2.4375 2.0625 C1.4475 2.3925 0.4575 2.7225 -0.5625 3.0625 C-0.8925 3.7225 -1.2225 4.3825 -1.5625 5.0625 C-0.2425 5.0625 1.0775 5.0625 2.4375 5.0625 C2.4375 5.7225 2.4375 6.3825 2.4375 7.0625 C0.77138095 7.105221 -0.89632885 7.10313832 -2.5625 7.0625 C-3.5625 6.0625 -3.5625 6.0625 -3.6875 3.5625 C-3.51717518 0.15600356 -3.41884482 0.08338646 0 0 Z " fill="#68737B" transform="translate(296.5625,56.9375)"/>
<path d="M0 0 C0.33 0.99 0.66 1.98 1 3 C-0.175625 3.1546875 -0.175625 3.1546875 -1.375 3.3125 C-4.33045181 3.77595022 -4.33045181 3.77595022 -6 7 C-6.66 5.68 -7.32 4.36 -8 3 C-5.53387212 -0.1151089 -3.89156016 -0.31553191 0 0 Z " fill="#778188" transform="translate(249,67)"/>
<path d="M0 0 C0.66 0.33 1.32 0.66 2 1 C1.67 6.28 1.34 11.56 1 17 C0.67 17 0.34 17 0 17 C0 13.7 0 10.4 0 7 C-0.99 6.67 -1.98 6.34 -3 6 C-2.67 5.01 -2.34 4.02 -2 3 C-1.34 3.33 -0.68 3.66 0 4 C0 2.68 0 1.36 0 0 Z " fill="#5E6A73" transform="translate(36,47)"/>
<path d="M0 0 C-1.98 0.99 -1.98 0.99 -4 2 C-3.01 2.66 -2.02 3.32 -1 4 C-3.64 4.66 -6.28 5.32 -9 6 C-8.625 3.5625 -8.625 3.5625 -8 1 C-5.29120665 -0.35439668 -2.99066732 -0.06501451 0 0 Z " fill="#DADDDF" transform="translate(99,44)"/>
<path d="M0 0 C1.98 0.66 3.96 1.32 6 2 C6 3.32 6 4.64 6 6 C4.33388095 6.042721 2.66617115 6.04063832 1 6 C0 5 0 5 -0.0625 2.4375 C-0.041875 1.633125 -0.02125 0.82875 0 0 Z " fill="#929AA0" transform="translate(142,86)"/>
<path d="M0 0 C1.65 0 3.3 0 5 0 C5 1.65 5 3.3 5 5 C4.38125 4.79375 3.7625 4.5875 3.125 4.375 C2.42375 4.25125 1.7225 4.1275 1 4 C0.34 4.66 -0.32 5.32 -1 6 C-0.67 4.02 -0.34 2.04 0 0 Z " fill="#969DA3" transform="translate(176,71)"/>
<path d="M0 0 C0.66 0.66 1.32 1.32 2 2 C3.32 2 4.64 2 6 2 C6 3.32 6 4.64 6 6 C4.125 6.625 4.125 6.625 2 7 C0 5 0 5 -0.125 2.375 C-0.08375 1.59125 -0.0425 0.8075 0 0 Z " fill="#9DA4A9" transform="translate(305,58)"/>
<path d="M0 0 C1.67542976 0.28604898 3.34385343 0.61781233 5 1 C5 2.32 5 3.64 5 5 C3.35 5.33 1.7 5.66 0 6 C-0.38218767 4.34385343 -0.71395102 2.67542976 -1 1 C-0.67 0.67 -0.34 0.34 0 0 Z " fill="#969EA3" transform="translate(211,58)"/>
<path d="M0 0 C0.66 0.99 1.32 1.98 2 3 C0.14375 2.7215625 0.14375 2.7215625 -1.75 2.4375 C-4.76279577 2.05288777 -7.10010827 1.9125406 -10 3 C-9.67 2.01 -9.34 1.02 -9 0 C-5.85135005 -1.57432497 -3.35512575 -0.71895552 0 0 Z " fill="#E1E3E5" transform="translate(67,24)"/>
<path d="M0 0 C1.32 0 2.64 0 4 0 C4.625 2.375 4.625 2.375 5 5 C4.34 5.66 3.68 6.32 3 7 C2.01 7 1.02 7 0 7 C0 6.34 0 5.68 0 5 C0.66 5 1.32 5 2 5 C2 4.01 2 3.02 2 2 C1.01 1.67 0.02 1.34 -1 1 C-0.67 0.67 -0.34 0.34 0 0 Z " fill="#6B767E" transform="translate(212,85)"/>
<path d="M0 0 C0.66 0.33 1.32 0.66 2 1 C2 1.99 2 2.98 2 4 C2.66 4.33 3.32 4.66 4 5 C3.34 5 2.68 5 2 5 C2 5.66 2 6.32 2 7 C3.65 7 5.3 7 7 7 C7 7.33 7 7.66 7 8 C3.7 8 0.4 8 -3 8 C-2.01 7.67 -1.02 7.34 0 7 C0 4.69 0 2.38 0 0 Z " fill="#CBCFD2" transform="translate(188,71)"/>
<path d="M0 0 C1.32 0.33 2.64 0.66 4 1 C4 2.65 4 4.3 4 6 C2.68 6 1.36 6 0 6 C-0.33 6.66 -0.66 7.32 -1 8 C-2.32 7.67 -3.64 7.34 -5 7 C-4.01 7 -3.02 7 -2 7 C-0.49069817 3.6136749 -0.49069817 3.6136749 0 0 Z " fill="#91999F" transform="translate(167,71)"/>
<path d="M0 0 C1 3 1 3 0.0625 5.1875 C-0.4634375 6.0846875 -0.4634375 6.0846875 -1 7 C-1.33 6.67 -1.66 6.34 -2 6 C-2.33 8.31 -2.66 10.62 -3 13 C-3.33 13 -3.66 13 -4 13 C-4.29380531 4.18584071 -4.29380531 4.18584071 -2 1 C-1.34 0.67 -0.68 0.34 0 0 Z " fill="#838C93" transform="translate(13,45)"/>
<path d="M0 0 C0 0.33 0 0.66 0 1 C-0.721875 1.061875 -1.44375 1.12375 -2.1875 1.1875 C-5.84657625 2.24456647 -7.49211602 4.20550071 -10 7 C-10.33 5.68 -10.66 4.36 -11 3 C-7.16674383 0.29417212 -4.67461851 -0.32613618 0 0 Z " fill="#79838A" transform="translate(32,41)"/>
<path d="M0 0 C1.32 0.66 2.64 1.32 4 2 C3.67 3.65 3.34 5.3 3 7 C1.68 6.67 0.36 6.34 -1 6 C-0.67 4.02 -0.34 2.04 0 0 Z " fill="#7B858C" transform="translate(288,71)"/>
<path d="M0 0 C2.375 0.3125 2.375 0.3125 5 1 C5.66 1.99 6.32 2.98 7 4 C3.52674819 5.1577506 0.63932552 5.06866652 -3 5 C-2.67 4.34 -2.34 3.68 -2 3 C-0.68 3 0.64 3 2 3 C1.34 2.01 0.68 1.02 0 0 Z " fill="#778189" transform="translate(39,40)"/>
<path d="M0 0 C0.66 0.33 1.32 0.66 2 1 C2.625 3.5625 2.625 3.5625 3 6 C1.35 5.67 -0.3 5.34 -2 5 C-1.125 1.125 -1.125 1.125 0 0 Z " fill="#7E878E" transform="translate(177,86)"/>
<path d="M0 0 C0.99 0 1.98 0 3 0 C3 1.32 3 2.64 3 4 C3.66 4.33 4.32 4.66 5 5 C2.625 5.625 2.625 5.625 0 6 C-0.66 5.34 -1.32 4.68 -2 4 C-1.34 4 -0.68 4 0 4 C0 2.68 0 1.36 0 0 Z " fill="#A9AFB4" transform="translate(264,73)"/>
<path d="M0 0 C0.66 0 1.32 0 2 0 C2 2.31 2 4.62 2 7 C1.34 7 0.68 7 0 7 C0 6.34 0 5.68 0 5 C-1.32 5 -2.64 5 -4 5 C-4 4.01 -4 3.02 -4 2 C-2.68 2 -1.36 2 0 2 C0 1.34 0 0.68 0 0 Z " fill="#EAEBED" transform="translate(314,71)"/>
<path d="M0 0 C0.66 0 1.32 0 2 0 C2 2.31 2 4.62 2 7 C1.34 7 0.68 7 0 7 C0 6.34 0 5.68 0 5 C-1.32 5 -2.64 5 -4 5 C-4 4.01 -4 3.02 -4 2 C-2.68 2 -1.36 2 0 2 C0 1.34 0 0.68 0 0 Z " fill="#E9EAEB" transform="translate(215,71)"/>
<path d="M0 0 C1.65 0.33 3.3 0.66 5 1 C4.67 2.32 4.34 3.64 4 5 C4 4.34 4 3.68 4 3 C3.34 3 2.68 3 2 3 C1.67 3.99 1.34 4.98 1 6 C0.34 6 -0.32 6 -1 6 C-0.67 4.02 -0.34 2.04 0 0 Z " fill="#ECEDEE" transform="translate(56,73)"/>
<path d="M0 0 C1.65 0 3.3 0 5 0 C5.33 0.66 5.66 1.32 6 2 C4.35 2 2.7 2 1 2 C1 2.66 1 3.32 1 4 C1.66 4 2.32 4 3 4 C3 4.66 3 5.32 3 6 C1.68 5.67 0.36 5.34 -1 5 C-0.67 3.35 -0.34 1.7 0 0 Z " fill="#E6E8E9" transform="translate(245,70)"/>
<path d="M0 0 C0.99 0 1.98 0 3 0 C3 2.31 3 4.62 3 7 C2.01 7.33 1.02 7.66 0 8 C0 5.36 0 2.72 0 0 Z " fill="#E0E3E4" transform="translate(64,29)"/>
<path d="M0 0 C2.31 0 4.62 0 7 0 C7 2.31 7 4.62 7 7 C6.34 7 5.68 7 5 7 C5 6.01 5 5.02 5 4 C4.01 3.67 3.02 3.34 2 3 C2.66 3 3.32 3 4 3 C4 2.34 4 1.68 4 1 C2.68 0.67 1.36 0.34 0 0 Z " fill="#DCDFE1" transform="translate(154,70)"/>
<path d="M0 0 C0.66 0 1.32 0 2 0 C2.33 2.31 2.66 4.62 3 7 C1.02 7.33 -0.96 7.66 -3 8 C-2.01 7.67 -1.02 7.34 0 7 C-0.2784375 5.824375 -0.2784375 5.824375 -0.5625 4.625 C-1 2 -1 2 0 0 Z " fill="#CDD1D3" transform="translate(180,57)"/>
<path d="M0 0 C0.33 0.66 0.66 1.32 1 2 C3.02463255 2.65213292 3.02463255 2.65213292 5 3 C3.35 3 1.7 3 0 3 C-0.33 4.65 -0.66 6.3 -1 8 C-1.99 7.67 -2.98 7.34 -4 7 C-3.34 7 -2.68 7 -2 7 C-2 5.02 -2 3.04 -2 1 C-1.34 0.67 -0.68 0.34 0 0 Z " fill="#BFC4C7" transform="translate(284,57)"/>
<path d="M0 0 C1.98 0 3.96 0 6 0 C5.2884375 0.61875 5.2884375 0.61875 4.5625 1.25 C2.83733482 3.182185 2.43415125 4.48192275 2 7 C1.34 7 0.68 7 0 7 C0 4.69 0 2.38 0 0 Z " fill="#646F78" transform="translate(264,57)"/>
<path d="M0 0 C-0.33 0.99 -0.66 1.98 -1 3 C-3.64 3 -6.28 3 -9 3 C-9.33 2.34 -9.66 1.68 -10 1 C-6.56484998 0.37542727 -3.50935186 0 0 0 Z " fill="#657079" transform="translate(69,49)"/>
<path d="M0 0 C0.66 0.66 1.32 1.32 2 2 C1.625 4.625 1.625 4.625 1 7 C0.67 6.34 0.34 5.68 0 5 C-1.32 5 -2.64 5 -4 5 C-4 4.01 -4 3.02 -4 2 C-2.68 2 -1.36 2 0 2 C0 1.34 0 0.68 0 0 Z " fill="#DADCDE" transform="translate(207,85)"/>
<path d="M0 0 C0.66 1.32 1.32 2.64 2 4 C1.34 4 0.68 4 0 4 C0 4.66 0 5.32 0 6 C-1.65 5.67 -3.3 5.34 -5 5 C-4.67 4.01 -4.34 3.02 -4 2 C-3.34 2 -2.68 2 -2 2 C-1.34 1.34 -0.68 0.68 0 0 Z " fill="#828B92" transform="translate(71,85)"/>
<path d="M0 0 C0.33 0 0.66 0 1 0 C1 1.65 1 3.3 1 5 C0.360625 5.28875 -0.27875 5.5775 -0.9375 5.875 C-3.15206079 6.82823451 -3.15206079 6.82823451 -4 9 C-3.814375 8.4225 -3.62875 7.845 -3.4375 7.25 C-2.95976454 4.79307475 -3.24270636 3.35602466 -4 1 C-2.515 1.99 -2.515 1.99 -1 3 C-0.67 2.01 -0.34 1.02 0 0 Z " fill="#9BA2A8" transform="translate(70,75)"/>
<path d="M0 0 C0.33 0 0.66 0 1 0 C1 1.98 1 3.96 1 6 C-1.31 6 -3.62 6 -6 6 C-5.67 4.68 -5.34 3.36 -5 2 C-2.525 2.99 -2.525 2.99 0 4 C0 2.68 0 1.36 0 0 Z " fill="#646F78" transform="translate(182,72)"/>
<path d="M0 0 C0.99 0 1.98 0 3 0 C3 2.31 3 4.62 3 7 C2.01 7 1.02 7 0 7 C0 4.69 0 2.38 0 0 Z " fill="#6F7981" transform="translate(204,71)"/>
<path d="M0 0 C0.99 0 1.98 0 3 0 C3 2.31 3 4.62 3 7 C2.01 7 1.02 7 0 7 C0 4.69 0 2.38 0 0 Z " fill="#6B767E" transform="translate(303,71)"/>
<path d="M0 0 C1.98 0 3.96 0 6 0 C5.67 0.66 5.34 1.32 5 2 C4.01 2 3.02 2 2 2 C2 3.65 2 5.3 2 7 C1.34 7 0.68 7 0 7 C0 4.69 0 2.38 0 0 Z " fill="#66717A" transform="translate(281,71)"/>
<path d="M0 0 C0.99 0 1.98 0 3 0 C3 2.31 3 4.62 3 7 C2.01 7 1.02 7 0 7 C0 4.69 0 2.38 0 0 Z " fill="#747E86" transform="translate(301,57)"/>
<path d="M0 0 C0.99 0 1.98 0 3 0 C3 2.31 3 4.62 3 7 C2.01 7 1.02 7 0 7 C0 4.69 0 2.38 0 0 Z " fill="#667179" transform="translate(171,57)"/>
<path d="M0 0 C1.9453125 -0.29296875 1.9453125 -0.29296875 4.125 -0.1875 C5.40375 -0.125625 6.6825 -0.06375 8 0 C8.33 0.66 8.66 1.32 9 2 C5.37 2.33 1.74 2.66 -2 3 C-1.34 2.01 -0.68 1.02 0 0 Z " fill="#647078" transform="translate(25,35)"/>
<path d="M0 0 C0.99 0 1.98 0 3 0 C4.6875 2 4.6875 2 6 4 C4.35 4.33 2.7 4.66 1 5 C0.67 3.35 0.34 1.7 0 0 Z " fill="#7E888F" transform="translate(164,87)"/>
<path d="M0 0 C0.66 0.33 1.32 0.66 2 1 C0.68 2.32 -0.64 3.64 -2 5 C-1.67 5.66 -1.34 6.32 -1 7 C-2.98 7.99 -2.98 7.99 -5 9 C-5.3125 6.75 -5.3125 6.75 -5 4 C-2.5 1.6875 -2.5 1.6875 0 0 Z " fill="#DBDEDF" transform="translate(95,64)"/>
<path d="M0 0 C1.65 0 3.3 0 5 0 C5 0.99 5 1.98 5 3 C2.625 3.625 2.625 3.625 0 4 C-0.66 3.34 -1.32 2.68 -2 2 C-1.34 2 -0.68 2 0 2 C0 1.34 0 0.68 0 0 Z " fill="#899298" transform="translate(223,61)"/>
<path d="M0 0 C0.9075 0.185625 1.815 0.37125 2.75 0.5625 C5.68314324 0.95734621 7.2644657 0.94691572 10 0 C8.515 1.98 8.515 1.98 7 4 C4.03 3.505 4.03 3.505 1 3 C0.67 2.01 0.34 1.02 0 0 Z " fill="#E5E7E8" transform="translate(58,39)"/>
<path d="M0 0 C0.66 0 1.32 0 2 0 C2 0.66 2 1.32 2 2 C2.66 2 3.32 2 4 2 C4 2.66 4 3.32 4 4 C3.34 4 2.68 4 2 4 C2 4.66 2 5.32 2 6 C1.34 6 0.68 6 0 6 C0 5.34 0 4.68 0 4 C-0.66 4 -1.32 4 -2 4 C-2 3.34 -2 2.68 -2 2 C-1.34 2 -0.68 2 0 2 C0 1.34 0 0.68 0 0 Z " fill="#67727B" transform="translate(62,13)"/>
<path d="M0 0 C2.97 0.33 5.94 0.66 9 1 C8.67 1.66 8.34 2.32 8 3 C5.69 3 3.38 3 1 3 C0.67 2.01 0.34 1.02 0 0 Z " fill="#636E77" transform="translate(23,95)"/>
<path d="M0 0 C4 4.75 4 4.75 4 7 C2.68 6.67 1.36 6.34 0 6 C-0.38218767 4.34385343 -0.71395102 2.67542976 -1 1 C-0.67 0.67 -0.34 0.34 0 0 Z " fill="#647078" transform="translate(242,71)"/>
<path d="M0 0 C0.66 0.33 1.32 0.66 2 1 C-0.64 3.64 -3.28 6.28 -6 9 C-6.33 8.34 -6.66 7.68 -7 7 C-4.66666667 4.66666667 -2.33333333 2.33333333 0 0 Z " fill="#E7E9EB" transform="translate(94,73)"/>
<path d="M0 0 C3.625 0.375 3.625 0.375 7 1 C7 1.33 7 1.66 7 2 C5.35 2 3.7 2 2 2 C2 2.66 2 3.32 2 4 C0.68 3.34 -0.64 2.68 -2 2 C-1.34 1.34 -0.68 0.68 0 0 Z " fill="#D9DCDE" transform="translate(60,11)"/>
<path d="M0 0 C0.433125 0.45375 0.86625 0.9075 1.3125 1.375 C3.10798342 3.20024334 3.10798342 3.20024334 6 5 C4.68 5 3.36 5 2 5 C2 5.66 2 6.32 2 7 C1.34 7 0.68 7 0 7 C0 4.69 0 2.38 0 0 Z " fill="#C1C5C9" transform="translate(191,85)"/>
<path d="M0 0 C0.33 0 0.66 0 1 0 C1.1953125 6.0546875 1.1953125 6.0546875 1 8 C0.34 8.66 -0.32 9.32 -1 10 C-1.99 9.67 -2.98 9.34 -4 9 C-3.525625 8.62875 -3.05125 8.2575 -2.5625 7.875 C-0.47794198 5.37353038 -0.35378509 3.18406582 0 0 Z " fill="#6A747D" transform="translate(173,82)"/>
<path d="M0 0 C1.65 0 3.3 0 5 0 C5 0.66 5 1.32 5 2 C4.34 2 3.68 2 3 2 C3 2.66 3 3.32 3 4 C1.68 3.67 0.36 3.34 -1 3 C-0.67 2.01 -0.34 1.02 0 0 Z " fill="#6F7A81" transform="translate(153,71)"/>
<path d="M0 0 C0.33 0.99 0.66 1.98 1 3 C0.01 3.99 -0.98 4.98 -2 6 C-2.99 5.67 -3.98 5.34 -5 5 C-3.35 3.35 -1.7 1.7 0 0 Z " fill="#69747C" transform="translate(111,65)"/>
<path d="M0 0 C1.4606285 2.64738916 2 3.89448334 2 7 C0.02 7 -1.96 7 -4 7 C-3.01 6.67 -2.02 6.34 -1 6 C-1.020625 5.195625 -1.04125 4.39125 -1.0625 3.5625 C-1 1 -1 1 0 0 Z " fill="#D1D4D6" transform="translate(156,58)"/>
<path d="M0 0 C0.99 0.33 1.98 0.66 3 1 C2.67 2.32 2.34 3.64 2 5 C0.35 4.67 -1.3 4.34 -3 4 C-2.67 3.01 -2.34 2.02 -2 1 C-1.34 0.67 -0.68 0.34 0 0 Z " fill="#A4AAAF" transform="translate(203,58)"/>
<path d="M0 0 C1.98 0 3.96 0 6 0 C5.67 1.65 5.34 3.3 5 5 C4.01 5 3.02 5 2 5 C2 3.68 2 2.36 2 1 C1.34 0.67 0.68 0.34 0 0 Z " fill="#A2A8AE" transform="translate(255,57)"/>
<path d="M0 0 C0.33 0 0.66 0 1 0 C1 2.31 1 4.62 1 7 C1.66 7.33 2.32 7.66 3 8 C2.01 8 1.02 8 0 8 C-0.33 8.66 -0.66 9.32 -1 10 C-1.33 8.35 -1.66 6.7 -2 5 C-1.34 5 -0.68 5 0 5 C0 3.35 0 1.7 0 0 Z " fill="#C5C9CC" transform="translate(280,71)"/>
<path d="M0 0 C1.32 0 2.64 0 4 0 C4 0.99 4 1.98 4 3 C3.01 3 2.02 3 1 3 C0.67 3.99 0.34 4.98 0 6 C0 5.01 0 4.02 0 3 C-0.66 2.67 -1.32 2.34 -2 2 C-1.34 2 -0.68 2 0 2 C0 1.34 0 0.68 0 0 Z " fill="#B4B9BE" transform="translate(302,68)"/>
<path d="M0 0 C0.28875 0.598125 0.5775 1.19625 0.875 1.8125 C2.04742026 4.19327792 2.04742026 4.19327792 4 7 C2.68 7.33 1.36 7.66 0 8 C-1.09658936 4.71023192 -0.79953138 3.28696233 0 0 Z " fill="#7F888F" transform="translate(25,53)"/>
</svg>
